<svg width="3109" height="396" xmlns="http://www.w3.org/2000/svg" xmlns:xlink="http://www.w3.org/1999/xlink" xml:space="preserve" overflow="hidden"><defs><filter id="fx0" x="-10%" y="-10%" width="120%" height="120%" filterUnits="userSpaceOnUse" primitiveUnits="userSpaceOnUse"><feComponentTransfer color-interpolation-filters="sRGB"><feFuncR type="discrete" tableValues="0 0"/><feFuncG type="discrete" tableValues="0 0"/><feFuncB type="discrete" tableValues="0 0"/><feFuncA type="linear" slope="0.4" intercept="0"/></feComponentTransfer><feGaussianBlur stdDeviation="6.11111 6.11111"/></filter><clipPath id="clip1"><rect x="66" y="437" width="3109" height="396"/></clipPath><clipPath id="clip2"><path d="M822.5 447.5 822.5 802.5 2406.5 802.5 2406.5 447.5ZM66 437 3175 437 3175 833 66 833Z" fill-rule="evenodd" clip-rule="evenodd"/></clipPath><clipPath id="clip3"><rect x="-3" y="-3" width="1631" height="403"/></clipPath><clipPath id="clip4"><rect x="0" y="0" width="1627" height="398"/></clipPath></defs><g clip-path="url(#clip1)" transform="translate(-66 -437)"><g clip-path="url(#clip2)"><g clip-path="url(#clip3)" filter="url(#fx0)" transform="translate(811 436)"><g clip-path="url(#clip4)"><rect x="21.2228" y="21.2228" width="1584" height="355" stroke="#B4C7E7" stroke-width="3" stroke-linejoin="round" stroke-miterlimit="10" fill="#D9EBF9"/></g></g></g><rect x="822.5" y="447.5" width="1584" height="355" stroke="#B4C7E7" stroke-width="3.4375" stroke-linejoin="round" stroke-miterlimit="10" fill="#D9EBF9"/><rect x="897.5" y="607.5" width="569" height="136" stroke="#41719C" stroke-width="4.58333" stroke-miterlimit="8" fill="#5B9BD5"/><text fill="#FFFFFF" font-family="Segoe UI Semibold,Segoe UI Semibold_MSFontService,sans-serif" font-weight="600" font-size="46" transform="matrix(1 0 0 1 1026.54 692)">Authentication</text><rect x="1727.5" y="607.5" width="616" height="136" stroke="#41719C" stroke-width="4.58333" stroke-miterlimit="8" fill="#5B9BD5"/><text fill="#FFFFFF" font-family="Segoe UI Semibold,Segoe UI Semibold_MSFontService,sans-serif" font-weight="600" font-size="46" transform="matrix(1 0 0 1 1891.51 692)">Authorization</text><path d="M1466.5 672.062 1703.9 672.063 1703.9 678.938 1466.5 678.937ZM1699.32 661.75 1726.82 675.5 1699.32 689.25Z" fill="#4472C4"/><path d="M637.5 672.062 874.904 672.063 874.904 678.938 637.5 678.937ZM870.32 661.75 897.82 675.5 870.32 689.25Z" fill="#4472C4"/><path d="M4.76555e-06-3.4375 237.403-3.43717 237.403 3.43783-4.76555e-06 3.4375ZM232.82-13.7497 260.32 0.000360892 232.82 13.7503Z" fill="#4472C4" transform="matrix(1 0 0 -1 2343.5 675.5)"/><rect x="2603.5" y="607.5" width="569" height="136" stroke="#507E32" stroke-width="4.58333" stroke-miterlimit="8" fill="#70AD47"/><text fill="#FFFFFF" font-family="Segoe UI Semibold,Segoe UI Semibold_MSFontService,sans-serif" font-weight="600" font-size="46" transform="matrix(1 0 0 1 2713.51 692)">Persisted to etcd</text><rect x="68.4999" y="607.5" width="569" height="136" stroke="#ED7D31" stroke-width="4.58333" stroke-miterlimit="8" fill="#ED7D31"/><text fill="#FFFFFF" font-family="Segoe UI Semibold,Segoe UI Semibold_MSFontService,sans-serif" font-weight="600" font-size="46" transform="matrix(1 0 0 1 273.621 692)">Kubectl</text><text font-family="Segoe UI Semibold,Segoe UI Semibold_MSFontService,sans-serif" font-weight="600" font-size="64" transform="matrix(1 0 0 1 1460.75 541)">API Server</text></g></svg>