<svg width="2718" height="1113" xmlns="http://www.w3.org/2000/svg" xmlns:xlink="http://www.w3.org/1999/xlink" xml:space="preserve" overflow="hidden"><defs><filter id="fx0" x="-10%" y="-10%" width="120%" height="120%" filterUnits="userSpaceOnUse" primitiveUnits="userSpaceOnUse"><feComponentTransfer color-interpolation-filters="sRGB"><feFuncR type="discrete" tableValues="0 0"/><feFuncG type="discrete" tableValues="0 0"/><feFuncB type="discrete" tableValues="0 0"/><feFuncA type="linear" slope="0.4" intercept="0"/></feComponentTransfer><feGaussianBlur stdDeviation="6.11111 6.11111"/></filter><clipPath id="clip1"><rect x="87" y="615" width="2718" height="1113"/></clipPath><clipPath id="clip2"><rect x="2570" y="614" width="235" height="228"/></clipPath><clipPath id="clip3"><rect x="2570" y="614" width="235" height="228"/></clipPath><clipPath id="clip4"><rect x="2570" y="614" width="235" height="228"/></clipPath><clipPath id="clip5"><rect x="2570" y="909" width="235" height="229"/></clipPath><clipPath id="clip6"><rect x="2570" y="909" width="235" height="229"/></clipPath><clipPath id="clip7"><rect x="2570" y="909" width="235" height="229"/></clipPath><clipPath id="clip8"><rect x="2570" y="1204" width="235" height="229"/></clipPath><clipPath id="clip9"><rect x="2570" y="1204" width="235" height="229"/></clipPath><clipPath id="clip10"><rect x="2570" y="1204" width="235" height="229"/></clipPath><clipPath id="clip11"><rect x="2570" y="1501" width="235" height="228"/></clipPath><clipPath id="clip12"><rect x="2570" y="1501" width="235" height="228"/></clipPath><clipPath id="clip13"><rect x="2570" y="1501" width="235" height="228"/></clipPath><clipPath id="clip14"><path d="M618.5 829.5 618.5 1477.5 1614.5 1477.5 1614.5 829.5ZM87 615 2805 615 2805 1728 87 1728Z" fill-rule="evenodd" clip-rule="evenodd"/></clipPath><clipPath id="clip15"><rect x="-3" y="-3" width="1046" height="695"/></clipPath><clipPath id="clip16"><rect x="0" y="0" width="1039" height="691"/></clipPath></defs><g clip-path="url(#clip1)" transform="translate(-87 -615)"><g clip-path="url(#clip2)"><g clip-path="url(#clip3)"><g clip-path="url(#clip4)"><path d="M-90.1418 56.2296C-92.1004 56.3282-94.0194 56.8138-95.7862 57.658L-172.809 94.4604C-176.847 96.389-179.781 100.036-180.778 104.37L-199.78 187.038C-200.667 190.886-199.946 194.926-197.781 198.238-197.522 198.639-197.241 199.027-196.944 199.4L-143.632 265.686C-140.836 269.161-136.597 271.183-132.116 271.183L-46.6212 271.164C-42.1411 271.166-37.903 269.147-35.1057 265.676L18.1869 199.381C20.9838 195.904 22.0316 191.354 21.0338 187.018L2.00213 104.351C1.00435 100.017-1.92881 96.3692-5.96713 94.4406L-83 57.658C-85.2225 56.5962-87.6782 56.105-90.1418 56.2296Z" fill="#326CE5" transform="matrix(1.00052 0 0 1 2777.42 564.806)"/><path d="M-90.1831 50.2436C-92.2484 50.3518-94.2711 50.8675-96.133 51.7606L-177.451 90.6021C-181.714 92.6381-184.81 96.4886-185.864 101.064L-205.92 188.331C-206.858 192.396-206.097 196.664-203.811 200.162-203.536 200.583-203.24 200.991-202.926 201.383L-146.648 271.364C-143.696 275.03-139.223 277.166-134.491 277.165L-44.2392 277.145C-39.51 277.149-35.0365 275.017-32.0834 271.353L24.1741 201.363C27.1239 197.695 28.2296 192.896 27.1786 188.321L7.093 101.044C6.03702 96.4726 2.9411 92.6263-1.31953 90.5923L-82.6374 51.7508C-84.9856 50.6291-87.5803 50.1109-90.1831 50.2436ZM-90.1437 56.2329C-87.6801 56.1083-85.2244 56.5994-83.002 57.6613L-5.96913 94.4439C-1.9308 96.3725 1.00238 100.02 2.00017 104.354L21.0318 187.022C22.0298 191.357 20.9818 195.908 18.185 199.384L-35.1075 265.679C-37.905 269.15-42.143 271.17-46.6231 271.166L-132.117 271.186C-136.6 271.187-140.838 269.164-143.633 265.69L-196.945 199.404C-197.244 199.03-197.523 198.642-197.782 198.242-199.947 194.929-200.668 190.889-199.783 187.042L-180.781 104.374C-179.782 100.04-176.85 96.3923-172.811 94.4637L-95.7882 57.6613C-94.0213 56.8173-92.1023 56.3316-90.1437 56.2329Z" fill="#FFFFFF" transform="matrix(1.00052 0 0 1 2777.42 564.806)"/><text fill="#FFFFFF" font-family="Arial,Arial_MSFontService,sans-serif" font-weight="400" font-size="3" transform="matrix(12.9746 0 0 12.9678 2649.17 818)">pod</text><path d="M81.2018 91.2428 128.156 77.6266 175.111 91.2428 128.156 104.859Z" fill="#FFFFFF" fill-rule="evenodd" transform="matrix(1.00052 0 0 1 2559.78 599.802)"/><path d="M81.2018 96.4569 81.2018 146.418 124.95 170.653 125.167 109.533Z" fill="#FFFFFF" fill-rule="evenodd" transform="matrix(1.00052 0 0 1 2559.78 599.802)"/><path d="M175.111 96.4569 175.111 146.418 131.363 170.653 131.146 109.533Z" fill="#FFFFFF" fill-rule="evenodd" transform="matrix(1.00052 0 0 1 2559.78 599.802)"/></g></g></g><g clip-path="url(#clip5)"><g clip-path="url(#clip6)"><g clip-path="url(#clip7)"><path d="M-90.1419 56.2297C-92.1005 56.3283-94.0195 56.8139-95.7864 57.6581L-172.81 94.4605C-176.847 96.3891-179.781 100.037-180.779 104.37L-199.78 187.038C-200.667 190.886-199.946 194.927-197.781 198.238-197.522 198.639-197.242 199.028-196.944 199.4L-143.632 265.686C-140.837 269.161-136.597 271.184-132.116 271.184L-46.6213 271.164C-42.1412 271.167-37.9031 269.148-35.1058 265.676L18.187 199.382C20.9838 195.905 22.0317 191.355 21.0338 187.018L2.00213 104.351C1.00435 100.017-1.92881 96.3694-5.96714 94.4408L-83.0001 57.6581C-85.2226 56.5963-87.6783 56.1051-90.1419 56.2297Z" fill="#326CE5" transform="matrix(1.00052 0 0 1 2777.42 859.805)"/><path d="M-90.1832 50.2437C-92.2486 50.3519-94.2713 50.8676-96.1332 51.7607L-177.452 90.6023C-181.714 92.6383-184.81 96.4888-185.864 101.064L-205.92 188.332C-206.858 192.396-206.098 196.664-203.812 200.162-203.537 200.583-203.24 200.991-202.926 201.383L-146.648 271.364C-143.696 275.031-139.223 277.167-134.492 277.165L-44.2393 277.146C-39.5101 277.15-35.0365 275.018-32.0835 271.354L24.1741 201.364C27.1239 197.696 28.2297 192.896 27.1787 188.321L7.09301 101.044C6.03703 96.4727 2.9411 92.6264-1.31953 90.5924L-82.6375 51.7509C-84.9857 50.6292-87.5804 50.1109-90.1832 50.2437ZM-90.1439 56.233C-87.6803 56.1084-85.2246 56.5995-83.0021 57.6614L-5.96914 94.4441C-1.9308 96.3727 1.00239 100.02 2.00017 104.354L21.0318 187.022C22.0298 191.357 20.9818 195.908 18.185 199.384L-35.1076 265.68C-37.9051 269.15-42.143 271.171-46.6232 271.167L-132.117 271.186C-136.6 271.188-140.838 269.165-143.633 265.69L-196.946 199.404C-197.244 199.03-197.523 198.642-197.783 198.242-199.948 194.929-200.669 190.889-199.783 187.042L-180.781 104.374C-179.782 100.04-176.85 96.3924-172.811 94.4638L-95.7883 57.6614C-94.0215 56.8174-92.1025 56.3317-90.1439 56.233Z" fill="#FFFFFF" transform="matrix(1.00052 0 0 1 2777.42 859.805)"/><text fill="#FFFFFF" font-family="Arial,Arial_MSFontService,sans-serif" font-weight="400" font-size="3" transform="matrix(12.9746 0 0 12.9678 2649.17 1113)">pod</text><path d="M81.2019 91.2429 128.156 77.6267 175.111 91.2429 128.156 104.859Z" fill="#FFFFFF" fill-rule="evenodd" transform="matrix(1.00052 0 0 1 2559.78 894.802)"/><path d="M81.2019 96.4571 81.2019 146.419 124.95 170.653 125.167 109.533Z" fill="#FFFFFF" fill-rule="evenodd" transform="matrix(1.00052 0 0 1 2559.78 894.802)"/><path d="M175.111 96.4571 175.111 146.419 131.363 170.653 131.146 109.533Z" fill="#FFFFFF" fill-rule="evenodd" transform="matrix(1.00052 0 0 1 2559.78 894.802)"/></g></g></g><g clip-path="url(#clip8)"><g clip-path="url(#clip9)"><g clip-path="url(#clip10)"><path d="M-90.1419 56.2297C-92.1005 56.3283-94.0195 56.8139-95.7864 57.6581L-172.81 94.4605C-176.847 96.3891-179.781 100.037-180.779 104.37L-199.78 187.038C-200.667 190.886-199.946 194.927-197.781 198.238-197.522 198.639-197.242 199.028-196.944 199.4L-143.632 265.686C-140.837 269.161-136.597 271.184-132.116 271.184L-46.6213 271.164C-42.1412 271.167-37.9031 269.148-35.1058 265.676L18.187 199.382C20.9838 195.905 22.0317 191.355 21.0338 187.018L2.00213 104.351C1.00435 100.017-1.92881 96.3694-5.96714 94.4408L-83.0001 57.6581C-85.2226 56.5963-87.6783 56.1051-90.1419 56.2297Z" fill="#326CE5" transform="matrix(1.00052 0 0 1 2777.42 1154.81)"/><path d="M-90.1832 50.2437C-92.2486 50.3519-94.2713 50.8676-96.1332 51.7607L-177.452 90.6023C-181.714 92.6383-184.81 96.4888-185.864 101.064L-205.92 188.332C-206.858 192.396-206.098 196.664-203.812 200.162-203.537 200.583-203.24 200.991-202.926 201.383L-146.648 271.364C-143.696 275.031-139.223 277.167-134.492 277.165L-44.2393 277.146C-39.5101 277.15-35.0365 275.018-32.0835 271.354L24.1741 201.364C27.1239 197.696 28.2297 192.896 27.1787 188.321L7.09301 101.044C6.03703 96.4727 2.9411 92.6264-1.31953 90.5924L-82.6375 51.7509C-84.9857 50.6292-87.5804 50.1109-90.1832 50.2437ZM-90.1439 56.233C-87.6803 56.1084-85.2246 56.5995-83.0021 57.6614L-5.96914 94.4441C-1.9308 96.3727 1.00239 100.02 2.00017 104.354L21.0318 187.022C22.0298 191.357 20.9818 195.908 18.185 199.384L-35.1076 265.68C-37.9051 269.15-42.143 271.171-46.6232 271.167L-132.117 271.186C-136.6 271.188-140.838 269.165-143.633 265.69L-196.946 199.404C-197.244 199.03-197.523 198.642-197.783 198.242-199.948 194.929-200.669 190.889-199.783 187.042L-180.781 104.374C-179.782 100.04-176.85 96.3924-172.811 94.4638L-95.7883 57.6614C-94.0215 56.8174-92.1025 56.3317-90.1439 56.233Z" fill="#FFFFFF" transform="matrix(1.00052 0 0 1 2777.42 1154.81)"/><text fill="#FFFFFF" font-family="Arial,Arial_MSFontService,sans-serif" font-weight="400" font-size="3" transform="matrix(12.9746 0 0 12.9678 2649.17 1408)">pod</text><path d="M81.2019 91.2429 128.156 77.6267 175.111 91.2429 128.156 104.859Z" fill="#FFFFFF" fill-rule="evenodd" transform="matrix(1.00052 0 0 1 2559.78 1189.8)"/><path d="M81.2019 96.4571 81.2019 146.419 124.95 170.653 125.167 109.533Z" fill="#FFFFFF" fill-rule="evenodd" transform="matrix(1.00052 0 0 1 2559.78 1189.8)"/><path d="M175.111 96.4571 175.111 146.419 131.363 170.653 131.146 109.533Z" fill="#FFFFFF" fill-rule="evenodd" transform="matrix(1.00052 0 0 1 2559.78 1189.8)"/></g></g></g><g clip-path="url(#clip11)"><g clip-path="url(#clip12)"><g clip-path="url(#clip13)"><path d="M-90.1418 56.2296C-92.1004 56.3282-94.0194 56.8138-95.7862 57.658L-172.809 94.4604C-176.847 96.389-179.781 100.036-180.778 104.37L-199.78 187.038C-200.667 190.886-199.946 194.926-197.781 198.238-197.522 198.639-197.241 199.027-196.944 199.4L-143.632 265.686C-140.836 269.161-136.597 271.183-132.116 271.183L-46.6212 271.164C-42.1411 271.166-37.903 269.147-35.1057 265.676L18.1869 199.381C20.9838 195.904 22.0316 191.354 21.0338 187.018L2.00213 104.351C1.00435 100.017-1.92881 96.3692-5.96713 94.4406L-83 57.658C-85.2225 56.5962-87.6782 56.105-90.1418 56.2296Z" fill="#326CE5" transform="matrix(1.00052 0 0 1 2777.42 1450.81)"/><path d="M-90.1831 50.2436C-92.2484 50.3518-94.2711 50.8675-96.133 51.7606L-177.451 90.6021C-181.714 92.6381-184.81 96.4886-185.864 101.064L-205.92 188.331C-206.858 192.396-206.097 196.664-203.811 200.162-203.536 200.583-203.24 200.991-202.926 201.383L-146.648 271.364C-143.696 275.03-139.223 277.166-134.491 277.165L-44.2392 277.145C-39.51 277.149-35.0365 275.017-32.0834 271.353L24.1741 201.363C27.1239 197.695 28.2296 192.896 27.1786 188.321L7.093 101.044C6.03702 96.4726 2.9411 92.6263-1.31953 90.5923L-82.6374 51.7508C-84.9856 50.6291-87.5803 50.1109-90.1831 50.2436ZM-90.1437 56.2329C-87.6801 56.1083-85.2244 56.5994-83.002 57.6613L-5.96913 94.4439C-1.9308 96.3725 1.00238 100.02 2.00017 104.354L21.0318 187.022C22.0298 191.357 20.9818 195.908 18.185 199.384L-35.1075 265.679C-37.905 269.15-42.143 271.17-46.6231 271.166L-132.117 271.186C-136.6 271.187-140.838 269.164-143.633 265.69L-196.945 199.404C-197.244 199.03-197.523 198.642-197.782 198.242-199.947 194.929-200.668 190.889-199.783 187.042L-180.781 104.374C-179.782 100.04-176.85 96.3923-172.811 94.4637L-95.7882 57.6613C-94.0213 56.8173-92.1023 56.3316-90.1437 56.2329Z" fill="#FFFFFF" transform="matrix(1.00052 0 0 1 2777.42 1450.81)"/><text fill="#FFFFFF" font-family="Arial,Arial_MSFontService,sans-serif" font-weight="400" font-size="3" transform="matrix(12.9746 0 0 12.9678 2649.17 1704)">pod</text><path d="M81.2018 91.2428 128.156 77.6266 175.111 91.2428 128.156 104.859Z" fill="#FFFFFF" fill-rule="evenodd" transform="matrix(1.00052 0 0 1 2559.78 1485.8)"/><path d="M81.2018 96.4569 81.2018 146.418 124.95 170.653 125.167 109.533Z" fill="#FFFFFF" fill-rule="evenodd" transform="matrix(1.00052 0 0 1 2559.78 1485.8)"/><path d="M175.111 96.4569 175.111 146.418 131.363 170.653 131.146 109.533Z" fill="#FFFFFF" fill-rule="evenodd" transform="matrix(1.00052 0 0 1 2559.78 1485.8)"/></g></g></g><path d="M1813.5 967.375C1813.5 965.235 1815.23 963.5 1817.38 963.5L2332.62 963.5C2334.77 963.5 2336.5 965.235 2336.5 967.375L2336.5 1083.63C2336.5 1085.77 2334.77 1087.5 2332.62 1087.5L1817.38 1087.5C1815.23 1087.5 1813.5 1085.77 1813.5 1083.63Z" stroke="#70AD47" stroke-width="4.58333" stroke-linejoin="round" stroke-miterlimit="10" fill="#0078D4" fill-rule="evenodd" fill-opacity="0.0117647"/><text fill="#3C3C41" font-family="Segoe UI,Segoe UI_MSFontService,sans-serif" font-weight="400" font-size="46" transform="matrix(1 0 0 1 1943.13 1039)">Store Service</text><path d="M1813.5 1261.37C1813.5 1259.23 1815.23 1257.5 1817.38 1257.5L2332.62 1257.5C2334.77 1257.5 2336.5 1259.23 2336.5 1261.37L2336.5 1377.62C2336.5 1379.77 2334.77 1381.5 2332.62 1381.5L1817.38 1381.5C1815.23 1381.5 1813.5 1379.77 1813.5 1377.62Z" stroke="#0078D4" stroke-width="4.58333" stroke-linejoin="round" stroke-miterlimit="10" fill="#0078D4" fill-rule="evenodd" fill-opacity="0.0117647"/><text fill="#3C3C41" font-family="Segoe UI,Segoe UI_MSFontService,sans-serif" font-weight="400" font-size="46" transform="matrix(1 0 0 1 1900.73 1333)">Feedback Service</text><g clip-path="url(#clip14)"><g clip-path="url(#clip15)" filter="url(#fx0)" transform="translate(607 818)"><g clip-path="url(#clip16)"><rect x="21.2226" y="21.2227" width="996" height="648" stroke="#B4C7E7" stroke-width="3" stroke-linejoin="round" stroke-miterlimit="10" fill="#D9EBF9"/></g></g></g><rect x="618.5" y="829.5" width="996" height="648" stroke="#B4C7E7" stroke-width="3.4375" stroke-linejoin="round" stroke-miterlimit="10" fill="#D9EBF9"/><text fill="#3C3C41" font-family="Segoe UI Semibold,Segoe UI Semibold_MSFontService,sans-serif" font-weight="600" font-size="46" transform="matrix(1 0 0 1 1040.88 893)">Ingress</text><path d="M770.5 967.375C770.5 965.235 772.235 963.5 774.375 963.5L1456.63 963.5C1458.77 963.5 1460.5 965.235 1460.5 967.375L1460.5 1083.63C1460.5 1085.77 1458.77 1087.5 1456.63 1087.5L774.375 1087.5C772.235 1087.5 770.5 1085.77 770.5 1083.63Z" stroke="#70AD47" stroke-width="4.58333" stroke-linejoin="round" stroke-miterlimit="10" fill="#0078D4" fill-rule="evenodd" fill-opacity="0.0117647"/><text fill="#3C3C41" font-family="Segoe UI,Segoe UI_MSFontService,sans-serif" font-weight="400" font-size="46" transform="matrix(1 0 0 1 914.551 1039)">theteckie.com/store</text><path d="M770.5 1261.37C770.5 1259.23 772.235 1257.5 774.375 1257.5L1456.63 1257.5C1458.77 1257.5 1460.5 1259.23 1460.5 1261.37L1460.5 1377.63C1460.5 1379.77 1458.77 1381.5 1456.63 1381.5L774.375 1381.5C772.235 1381.5 770.5 1379.77 770.5 1377.63Z" stroke="#0078D4" stroke-width="4.58333" stroke-linejoin="round" stroke-miterlimit="10" fill="#0078D4" fill-rule="evenodd" fill-opacity="0.0117647"/><text fill="#3C3C41" font-family="Segoe UI,Segoe UI_MSFontService,sans-serif" font-weight="400" font-size="46" transform="matrix(1 0 0 1 873.587 1333)">theteckie.com/feedback</text><path d="M0.0250585-3.43741 211.963-1.89239 211.913 4.98243-0.0250585 3.43741ZM207.455-12.238 234.854 1.71207 207.255 15.2612Z" fill="#70AD47" transform="matrix(1 0 0 -1 2336.5 1026.21)"/><path d="M187 1153.2C187 1116.55 216.552 1087 253.197 1087 289.448 1087 319 1116.55 319 1153.2 319 1189.45 289.448 1219 253.197 1219 216.552 1219 187 1189.45 187 1153.2ZM253.197 1219C271.716 1219 286.69 1189.45 286.69 1153.2 286.69 1116.55 271.716 1087 253.197 1087 234.284 1087 219.31 1116.55 219.31 1153.2 219.31 1189.45 234.284 1219 253.197 1219ZM190.152 1132.71C315.848 1132.71 315.848 1132.71 315.848 1132.71M190.546 1174.08C315.454 1174.08 315.454 1174.08 315.454 1174.08" stroke="#000000" stroke-width="5.72917" stroke-miterlimit="8" fill="none" fill-rule="evenodd"/><text fill="#3C3C41" font-family="Segoe UI Semibold,Segoe UI Semibold_MSFontService,sans-serif" font-weight="600" font-size="64" transform="matrix(1 0 0 1 136.903 1054)">Internet</text><path d="M0.00178802-1.14583 276.817-0.713875 276.813 1.57779-0.00178802 1.14583ZM272.253-13.3252 299.731 0.467717 272.21 14.1748Z" fill="#4472C4" transform="matrix(1 0 0 -1 319 1153.47)"/><path d="M1460.5 1022.06 1789.84 1022.06 1789.84 1028.94 1460.5 1028.94ZM1785.25 1011.75 1812.75 1025.5 1785.25 1039.25Z" fill="#70AD47"/><path d="M1460.5 1316.06 1789.84 1316.06 1789.84 1322.94 1460.5 1322.94ZM1785.25 1305.75 1812.75 1319.5 1785.25 1333.25Z" fill="#4472C4"/><path d="M2336.5 1316.06 2548.44 1316.06 2548.44 1322.94 2336.5 1322.94ZM2543.85 1305.75 2571.35 1319.5 2543.85 1333.25Z" fill="#4472C4"/><path d="M2071.06 963.429 2071.06 725.062 2548.18 725.062 2548.18 731.937 2074.5 731.937 2077.94 728.5 2077.94 963.429ZM2543.6 714.75 2571.1 728.5 2543.6 742.25Z" fill="#70AD47"/><path d="M0-3.4375 236.655-3.4375 236.655 473.679 229.78 473.679 229.78 0 233.217 3.4375 0 3.4375ZM246.967 469.095 233.217 496.595 219.467 469.095Z" fill="#4472C4" transform="matrix(1.83697e-16 1 1 -1.83697e-16 2074.5 1381.5)"/></g></svg>