<svg width="3231" height="1116" xmlns="http://www.w3.org/2000/svg" xmlns:xlink="http://www.w3.org/1999/xlink" xml:space="preserve" overflow="hidden"><defs><filter id="fx0" x="-10%" y="-10%" width="120%" height="120%" filterUnits="userSpaceOnUse" primitiveUnits="userSpaceOnUse"><feComponentTransfer color-interpolation-filters="sRGB"><feFuncR type="discrete" tableValues="0 0"/><feFuncG type="discrete" tableValues="0 0"/><feFuncB type="discrete" tableValues="0 0"/><feFuncA type="linear" slope="0.4" intercept="0"/></feComponentTransfer><feGaussianBlur stdDeviation="6.11111 6.11111"/></filter><clipPath id="clip1"><rect x="595" y="632" width="3231" height="1116"/></clipPath><clipPath id="clip2"><path d="M605.5 642.5 605.5 1717.5 3795.5 1717.5 3795.5 642.5ZM595 632 3826 632 3826 1748 595 1748Z" fill-rule="evenodd" clip-rule="evenodd"/></clipPath><clipPath id="clip3"><rect x="-3" y="-3" width="3238" height="1126"/></clipPath><clipPath id="clip4"><rect x="0" y="0" width="3233" height="1118"/></clipPath></defs><g clip-path="url(#clip1)" transform="translate(-595 -632)"><g clip-path="url(#clip2)"><g clip-path="url(#clip3)" filter="url(#fx0)" transform="translate(594 631)"><g clip-path="url(#clip4)"><rect x="21.2225" y="21.2227" width="3190" height="1075" stroke="#B4C7E7" stroke-width="3" stroke-linejoin="round" stroke-miterlimit="10" fill="#D9EBF9"/></g></g></g><rect x="605.5" y="642.5" width="3190" height="1075" stroke="#B4C7E7" stroke-width="3.4375" stroke-linejoin="round" stroke-miterlimit="10" fill="#D9EBF9"/><rect x="723" y="729" width="816" height="914" fill="#5B9BD5"/><rect x="1792" y="729" width="816" height="914" fill="#A9D18E"/><rect x="2861" y="729" width="816" height="914" fill="#C198E0" fill-opacity="0.819608"/><text font-family="Calibri,Calibri_MSFontService,sans-serif" font-weight="700" font-size="46" transform="matrix(1 0 0 1 1054.1 1614)">Clusters</text><text font-family="Calibri,Calibri_MSFontService,sans-serif" font-weight="700" font-size="46" transform="matrix(1 0 0 1 2114.93 1615)">Contexts</text><text font-family="Calibri,Calibri_MSFontService,sans-serif" font-weight="700" font-size="46" transform="matrix(1 0 0 1 3215.38 1615)">Users</text><rect x="831" y="839" width="600" height="164" fill="#2F5597"/><text fill="#FFFFFF" font-family="Calibri,Calibri_MSFontService,sans-serif" font-weight="400" font-size="46" transform="matrix(1 0 0 1 1024.52 936)">Dev Cluster</text><rect x="831" y="1080" width="600" height="165" fill="#2F5597"/><text fill="#FFFFFF" font-family="Calibri,Calibri_MSFontService,sans-serif" font-weight="400" font-size="46" transform="matrix(1 0 0 1 957.771 1178)">Production Cluster</text><rect x="831" y="1322" width="600" height="165" fill="#2F5597"/><text fill="#FFFFFF" font-family="Calibri,Calibri_MSFontService,sans-serif" font-weight="400" font-size="46" transform="matrix(1 0 0 1 1024.52 1420)">AKS Cluster</text><rect x="2969" y="839" width="600" height="164" fill="#7030A0"/><text fill="#FFFFFF" font-family="Calibri,Calibri_MSFontService,sans-serif" font-weight="400" font-size="46" transform="matrix(1 0 0 1 3208.19 936)">Admin</text><rect x="2969" y="1080" width="600" height="165" fill="#7030A0"/><text fill="#FFFFFF" font-family="Calibri,Calibri_MSFontService,sans-serif" font-weight="400" font-size="46" transform="matrix(1 0 0 1 3184.99 1178)">Dev User</text><rect x="2969" y="1321" width="600" height="165" fill="#7030A0"/><text fill="#FFFFFF" font-family="Calibri,Calibri_MSFontService,sans-serif" font-weight="400" font-size="46" transform="matrix(1 0 0 1 3176.97 1419)">Prod User</text><rect x="1900" y="839" width="600" height="164" fill="#548235"/><text fill="#FFFFFF" font-family="Calibri,Calibri_MSFontService,sans-serif" font-weight="400" font-size="46" transform="matrix(1 0 0 1 1945.34 936)">Admin@Production Cluster</text><path d="M0 0 469.534 241.334" stroke="#4472C4" stroke-width="6.875" stroke-linecap="square" stroke-miterlimit="8" stroke-dasharray="20.625 6.875" fill="none" fill-rule="evenodd" transform="matrix(1 0 0 -1 1431.5 1162.83)"/><path d="M2500.5 921.5 2970.03 921.5" stroke="#4472C4" stroke-width="6.875" stroke-linecap="square" stroke-miterlimit="8" stroke-dasharray="20.625 6.875" fill="none" fill-rule="evenodd"/><rect x="1900" y="1080" width="600" height="165" fill="#548235"/><text fill="#FFFFFF" font-family="Calibri,Calibri_MSFontService,sans-serif" font-weight="400" font-size="46" transform="matrix(1 0 0 1 2028.98 1178)">Prod@AKS Cluster</text><path d="M0 0 469.533 242.566" stroke="#4472C4" stroke-width="6.875" stroke-linecap="square" stroke-miterlimit="8" stroke-dasharray="20.625 6.875" fill="none" fill-rule="evenodd" transform="matrix(1 0 0 -1 1431.5 1405.07)"/><path d="M2500.5 1162.5 2970.03 1403.83" stroke="#4472C4" stroke-width="6.875" stroke-linecap="square" stroke-miterlimit="8" stroke-dasharray="20.625 6.875" fill="none" fill-rule="evenodd"/></g></svg>