<svg width="1625" height="1185" xmlns="http://www.w3.org/2000/svg" xmlns:xlink="http://www.w3.org/1999/xlink" xml:space="preserve" overflow="hidden"><defs><filter id="fx0" x="-10%" y="-10%" width="120%" height="120%" filterUnits="userSpaceOnUse" primitiveUnits="userSpaceOnUse"><feComponentTransfer color-interpolation-filters="sRGB"><feFuncR type="discrete" tableValues="0 0"/><feFuncG type="discrete" tableValues="0 0"/><feFuncB type="discrete" tableValues="0 0"/><feFuncA type="linear" slope="0.4" intercept="0"/></feComponentTransfer><feGaussianBlur stdDeviation="6.11111 6.11111"/></filter><clipPath id="clip1"><rect x="537" y="577" width="1625" height="1185"/></clipPath><clipPath id="clip2"><path d="M547.5 587.5 547.5 1731.5 2131.5 1731.5 2131.5 587.5ZM537 577 2162 577 2162 1762 537 1762Z" fill-rule="evenodd" clip-rule="evenodd"/></clipPath><clipPath id="clip3"><rect x="-3" y="-3" width="1631" height="1194"/></clipPath><clipPath id="clip4"><rect x="0" y="0" width="1627" height="1187"/></clipPath><clipPath id="clip5"><rect x="731" y="818" width="235" height="227"/></clipPath><clipPath id="clip6"><rect x="731" y="818" width="235" height="227"/></clipPath><clipPath id="clip7"><rect x="731" y="818" width="235" height="227"/></clipPath><clipPath id="clip8"><rect x="1708" y="818" width="234" height="227"/></clipPath><clipPath id="clip9"><rect x="1708" y="818" width="234" height="227"/></clipPath><clipPath id="clip10"><rect x="1708" y="818" width="234" height="227"/></clipPath><clipPath id="clip11"><rect x="1223" y="1360" width="235" height="229"/></clipPath><clipPath id="clip12"><rect x="1223" y="1360" width="235" height="229"/></clipPath><clipPath id="clip13"><rect x="1223" y="1360" width="235" height="229"/></clipPath></defs><g clip-path="url(#clip1)" transform="translate(-537 -577)"><g clip-path="url(#clip2)"><g clip-path="url(#clip3)" filter="url(#fx0)" transform="translate(536 576)"><g clip-path="url(#clip4)"><rect x="21.2228" y="21.2227" width="1584" height="1144" stroke="#B4C7E7" stroke-width="3" stroke-linejoin="round" stroke-miterlimit="10" fill="#D9EBF9"/></g></g></g><rect x="547.5" y="587.5" width="1584" height="1144" stroke="#B4C7E7" stroke-width="3.4375" stroke-linejoin="round" stroke-miterlimit="10" fill="#D9EBF9"/><path d="M677.5 705.344C677.5 699.355 682.355 694.5 688.344 694.5L1013.66 694.5C1019.64 694.5 1024.5 699.355 1024.5 705.344L1024.5 1065.66C1024.5 1071.65 1019.64 1076.5 1013.66 1076.5L688.344 1076.5C682.355 1076.5 677.5 1071.65 677.5 1065.66Z" stroke="#0078D4" stroke-width="4.58333" stroke-linejoin="round" stroke-miterlimit="10" fill="#0078D4" fill-rule="evenodd" fill-opacity="0.0117647"/><g clip-path="url(#clip5)"><g clip-path="url(#clip6)"><g clip-path="url(#clip7)"><path d="M-90.1418 56.2296C-92.1004 56.3282-94.0194 56.8138-95.7862 57.658L-172.809 94.4604C-176.847 96.389-179.781 100.036-180.778 104.37L-199.78 187.038C-200.667 190.886-199.946 194.926-197.781 198.238-197.522 198.639-197.241 199.027-196.944 199.4L-143.632 265.686C-140.836 269.161-136.597 271.183-132.116 271.183L-46.6212 271.164C-42.1411 271.166-37.903 269.147-35.1057 265.676L18.1869 199.381C20.9838 195.904 22.0316 191.354 21.0338 187.018L2.00213 104.351C1.00435 100.017-1.92881 96.3692-5.96713 94.4406L-83 57.658C-85.2225 56.5962-87.6782 56.105-90.1418 56.2296Z" fill="#326CE5" transform="matrix(1.00052 0 0 1 938.418 767.806)"/><path d="M-90.1831 50.2436C-92.2484 50.3518-94.2711 50.8675-96.133 51.7606L-177.451 90.6021C-181.714 92.6381-184.81 96.4886-185.864 101.064L-205.92 188.331C-206.858 192.396-206.097 196.664-203.811 200.162-203.536 200.583-203.24 200.991-202.926 201.383L-146.648 271.364C-143.696 275.03-139.223 277.166-134.491 277.165L-44.2392 277.145C-39.51 277.149-35.0365 275.017-32.0834 271.353L24.1741 201.363C27.1239 197.695 28.2296 192.896 27.1786 188.321L7.093 101.044C6.03702 96.4726 2.9411 92.6263-1.31953 90.5923L-82.6374 51.7508C-84.9856 50.6291-87.5803 50.1109-90.1831 50.2436ZM-90.1437 56.2329C-87.6801 56.1083-85.2244 56.5994-83.002 57.6613L-5.96913 94.4439C-1.9308 96.3725 1.00238 100.02 2.00017 104.354L21.0318 187.022C22.0298 191.357 20.9818 195.908 18.185 199.384L-35.1075 265.679C-37.905 269.15-42.143 271.17-46.6231 271.166L-132.117 271.186C-136.6 271.187-140.838 269.164-143.633 265.69L-196.945 199.404C-197.244 199.03-197.523 198.642-197.782 198.242-199.947 194.929-200.668 190.889-199.783 187.042L-180.781 104.374C-179.782 100.04-176.85 96.3923-172.811 94.4637L-95.7882 57.6613C-94.0213 56.8173-92.1023 56.3316-90.1437 56.2329Z" fill="#FFFFFF" transform="matrix(1.00052 0 0 1 938.418 767.806)"/><text fill="#FFFFFF" font-family="Arial,Arial_MSFontService,sans-serif" font-weight="400" font-size="3" transform="matrix(12.9746 0 0 12.9678 810.166 1021)">pod</text><path d="M81.2018 91.2428 128.156 77.6266 175.111 91.2428 128.156 104.859Z" fill="#FFFFFF" fill-rule="evenodd" transform="matrix(1.00052 0 0 1 720.777 802.802)"/><path d="M81.2018 96.4569 81.2018 146.418 124.95 170.653 125.167 109.533Z" fill="#FFFFFF" fill-rule="evenodd" transform="matrix(1.00052 0 0 1 720.777 802.802)"/><path d="M175.111 96.4569 175.111 146.418 131.363 170.653 131.146 109.533Z" fill="#FFFFFF" fill-rule="evenodd" transform="matrix(1.00052 0 0 1 720.777 802.802)"/></g></g></g><text fill="#3C3C41" font-family="Segoe UI Semibold,Segoe UI Semibold_MSFontService,sans-serif" font-weight="600" font-size="46" transform="matrix(1 0 0 1 754.035 767)">Frontend</text><path d="M1653.5 705.375C1653.5 699.369 1658.37 694.5 1664.38 694.5L1990.62 694.5C1996.63 694.5 2001.5 699.369 2001.5 705.375L2001.5 1065.62C2001.5 1071.63 1996.63 1076.5 1990.62 1076.5L1664.38 1076.5C1658.37 1076.5 1653.5 1071.63 1653.5 1065.62Z" stroke="#0078D4" stroke-width="4.58333" stroke-linejoin="round" stroke-miterlimit="10" fill="#0078D4" fill-rule="evenodd" fill-opacity="0.0117647"/><g clip-path="url(#clip8)"><g clip-path="url(#clip9)"><g clip-path="url(#clip10)"><path d="M-90.1418 56.2296C-92.1004 56.3282-94.0194 56.8138-95.7862 57.658L-172.809 94.4604C-176.847 96.389-179.781 100.036-180.778 104.37L-199.78 187.038C-200.667 190.886-199.946 194.926-197.781 198.238-197.522 198.639-197.241 199.027-196.944 199.4L-143.632 265.686C-140.836 269.161-136.597 271.183-132.116 271.183L-46.6212 271.164C-42.1411 271.166-37.903 269.147-35.1057 265.676L18.1869 199.381C20.9838 195.904 22.0316 191.354 21.0338 187.018L2.00213 104.351C1.00435 100.017-1.92881 96.3692-5.96713 94.4406L-83 57.658C-85.2225 56.5962-87.6782 56.105-90.1418 56.2296Z" fill="#326CE5" transform="matrix(1.00052 0 0 1 1914.42 767.806)"/><path d="M-90.1831 50.2436C-92.2484 50.3518-94.2711 50.8675-96.133 51.7606L-177.451 90.6021C-181.714 92.6381-184.81 96.4886-185.864 101.064L-205.92 188.331C-206.858 192.396-206.097 196.664-203.811 200.162-203.536 200.583-203.24 200.991-202.926 201.383L-146.648 271.364C-143.696 275.03-139.223 277.166-134.491 277.165L-44.2392 277.145C-39.51 277.149-35.0365 275.017-32.0834 271.353L24.1741 201.363C27.1239 197.695 28.2296 192.896 27.1786 188.321L7.093 101.044C6.03702 96.4726 2.9411 92.6263-1.31953 90.5923L-82.6374 51.7508C-84.9856 50.6291-87.5803 50.1109-90.1831 50.2436ZM-90.1437 56.2329C-87.6801 56.1083-85.2244 56.5994-83.002 57.6613L-5.96913 94.4439C-1.9308 96.3725 1.00238 100.02 2.00017 104.354L21.0318 187.022C22.0298 191.357 20.9818 195.908 18.185 199.384L-35.1075 265.679C-37.905 269.15-42.143 271.17-46.6231 271.166L-132.117 271.186C-136.6 271.187-140.838 269.164-143.633 265.69L-196.945 199.404C-197.244 199.03-197.523 198.642-197.782 198.242-199.947 194.929-200.668 190.889-199.783 187.042L-180.781 104.374C-179.782 100.04-176.85 96.3923-172.811 94.4637L-95.7882 57.6613C-94.0213 56.8173-92.1023 56.3316-90.1437 56.2329Z" fill="#FFFFFF" transform="matrix(1.00052 0 0 1 1914.42 767.806)"/><text fill="#FFFFFF" font-family="Arial,Arial_MSFontService,sans-serif" font-weight="400" font-size="3" transform="matrix(12.9745 0 0 12.9678 1786.17 1021)">pod</text><path d="M81.2018 91.2428 128.156 77.6266 175.111 91.2428 128.156 104.859Z" fill="#FFFFFF" fill-rule="evenodd" transform="matrix(1.00052 0 0 1 1696.78 802.802)"/><path d="M81.2018 96.4569 81.2018 146.418 124.95 170.653 125.167 109.533Z" fill="#FFFFFF" fill-rule="evenodd" transform="matrix(1.00052 0 0 1 1696.78 802.802)"/><path d="M175.111 96.4569 175.111 146.418 131.363 170.653 131.146 109.533Z" fill="#FFFFFF" fill-rule="evenodd" transform="matrix(1.00052 0 0 1 1696.78 802.802)"/></g></g></g><text fill="#3C3C41" font-family="Segoe UI Semibold,Segoe UI Semibold_MSFontService,sans-serif" font-weight="600" font-size="46" transform="matrix(1 0 0 1 1789.87 767)">API</text><path d="M1169.5 1249.34C1169.5 1243.35 1174.35 1238.5 1180.34 1238.5L1505.66 1238.5C1511.65 1238.5 1516.5 1243.35 1516.5 1249.34L1516.5 1608.66C1516.5 1614.65 1511.65 1619.5 1505.66 1619.5L1180.34 1619.5C1174.35 1619.5 1169.5 1614.65 1169.5 1608.66Z" stroke="#0078D4" stroke-width="4.58333" stroke-linejoin="round" stroke-miterlimit="10" fill="#0078D4" fill-rule="evenodd" fill-opacity="0.0117647"/><g clip-path="url(#clip11)"><g clip-path="url(#clip12)"><g clip-path="url(#clip13)"><path d="M-90.1419 56.2297C-92.1005 56.3283-94.0195 56.8139-95.7864 57.6581L-172.81 94.4605C-176.847 96.3891-179.781 100.037-180.779 104.37L-199.78 187.038C-200.667 190.886-199.946 194.927-197.781 198.238-197.522 198.639-197.242 199.028-196.944 199.4L-143.632 265.686C-140.837 269.161-136.597 271.184-132.116 271.184L-46.6213 271.164C-42.1412 271.167-37.9031 269.148-35.1058 265.676L18.187 199.382C20.9838 195.905 22.0317 191.355 21.0338 187.018L2.00213 104.351C1.00435 100.017-1.92881 96.3694-5.96714 94.4408L-83.0001 57.6581C-85.2226 56.5963-87.6783 56.1051-90.1419 56.2297Z" fill="#326CE5" transform="matrix(1.00052 0 0 1 1429.42 1310.81)"/><path d="M-90.1832 50.2437C-92.2486 50.3519-94.2713 50.8676-96.1332 51.7607L-177.452 90.6023C-181.714 92.6383-184.81 96.4888-185.864 101.064L-205.92 188.332C-206.858 192.396-206.098 196.664-203.812 200.162-203.537 200.583-203.24 200.991-202.926 201.383L-146.648 271.364C-143.696 275.031-139.223 277.167-134.492 277.165L-44.2393 277.146C-39.5101 277.15-35.0365 275.018-32.0835 271.354L24.1741 201.364C27.1239 197.696 28.2297 192.896 27.1787 188.321L7.09301 101.044C6.03703 96.4727 2.9411 92.6264-1.31953 90.5924L-82.6375 51.7509C-84.9857 50.6292-87.5804 50.1109-90.1832 50.2437ZM-90.1439 56.233C-87.6803 56.1084-85.2246 56.5995-83.0021 57.6614L-5.96914 94.4441C-1.9308 96.3727 1.00239 100.02 2.00017 104.354L21.0318 187.022C22.0298 191.357 20.9818 195.908 18.185 199.384L-35.1076 265.68C-37.9051 269.15-42.143 271.171-46.6232 271.167L-132.117 271.186C-136.6 271.188-140.838 269.165-143.633 265.69L-196.946 199.404C-197.244 199.03-197.523 198.642-197.783 198.242-199.948 194.929-200.669 190.889-199.783 187.042L-180.781 104.374C-179.782 100.04-176.85 96.3924-172.811 94.4638L-95.7883 57.6614C-94.0215 56.8174-92.1025 56.3317-90.1439 56.233Z" fill="#FFFFFF" transform="matrix(1.00052 0 0 1 1429.42 1310.81)"/><text fill="#FFFFFF" font-family="Arial,Arial_MSFontService,sans-serif" font-weight="400" font-size="3" transform="matrix(12.9746 0 0 12.9678 1301.17 1564)">pod</text><path d="M81.2019 91.2429 128.156 77.6267 175.111 91.2429 128.156 104.859Z" fill="#FFFFFF" fill-rule="evenodd" transform="matrix(1.00052 0 0 1 1211.78 1345.8)"/><path d="M81.2019 96.4571 81.2019 146.419 124.95 170.653 125.167 109.533Z" fill="#FFFFFF" fill-rule="evenodd" transform="matrix(1.00052 0 0 1 1211.78 1345.8)"/><path d="M175.111 96.4571 175.111 146.419 131.363 170.653 131.146 109.533Z" fill="#FFFFFF" fill-rule="evenodd" transform="matrix(1.00052 0 0 1 1211.78 1345.8)"/></g></g></g><text fill="#3C3C41" font-family="Segoe UI Semibold,Segoe UI Semibold_MSFontService,sans-serif" font-weight="600" font-size="46" transform="matrix(1 0 0 1 1244.17 1311)">Database</text><path d="M1.97209e-06-3.4375 606.146-3.43715 606.146 3.43785-1.97209e-06 3.4375ZM601.562-13.7497 629.062 0.000360892 601.562 13.7503Z" fill="#4472C4" transform="matrix(1 0 0 -1 1024.5 885.5)"/><path d="M2.57722-2.27472 298.506 333.008 293.352 337.557-2.57722 2.27472ZM303.205 322.747 311.094 352.463 282.587 340.945Z" fill="#4472C4" transform="matrix(-1 0 0 1 1827.59 1076.5)"/><path d="M854.052 1074.2 1156.67 1409.64 1151.57 1414.25 848.948 1078.8ZM1161.26 1399.33 1169.47 1428.96 1140.84 1417.75Z" fill="#FF0000"/><path d="M930.211 1211.86 941.125 1203.17 977.5 1248.8 1013.87 1203.17 1024.79 1211.86 986.424 1260 1024.79 1308.14 1013.87 1316.83 977.5 1271.2 941.125 1316.83 930.211 1308.14 968.576 1260Z" fill="#FF0000" fill-rule="evenodd"/></g></svg>