<svg width="1274" height="2209" xmlns="http://www.w3.org/2000/svg" xmlns:xlink="http://www.w3.org/1999/xlink" xml:space="preserve" overflow="hidden"><defs><filter id="fx0" x="-10%" y="-10%" width="120%" height="120%" filterUnits="userSpaceOnUse" primitiveUnits="userSpaceOnUse"><feComponentTransfer color-interpolation-filters="sRGB"><feFuncR type="discrete" tableValues="0 0"/><feFuncG type="discrete" tableValues="0 0"/><feFuncB type="discrete" tableValues="0 0"/><feFuncA type="linear" slope="0.4" intercept="0"/></feComponentTransfer><feGaussianBlur stdDeviation="6.11111 6.11111"/></filter><clipPath id="clip1"><rect x="1781" y="74" width="1274" height="2209"/></clipPath><clipPath id="clip2"><path d="M1791.5 573.5 1791.5 2252.5 2835.5 2252.5 2835.5 573.5ZM1781 74 3055 74 3055 2283 1781 2283Z" fill-rule="evenodd" clip-rule="evenodd"/></clipPath><clipPath id="clip3"><rect x="-3" y="-3" width="1095" height="1728"/></clipPath><clipPath id="clip4"><rect x="0" y="0" width="1087" height="1722"/></clipPath><clipPath id="clip5"><rect x="2195" y="1917" width="235" height="227"/></clipPath><clipPath id="clip6"><rect x="2195" y="1917" width="235" height="227"/></clipPath><clipPath id="clip7"><rect x="2195" y="1917" width="235" height="227"/></clipPath><clipPath id="clip8"><rect x="2195" y="1204" width="235" height="229"/></clipPath><clipPath id="clip9"><rect x="2195" y="1204" width="235" height="229"/></clipPath><clipPath id="clip10"><rect x="2195" y="1204" width="235" height="229"/></clipPath><clipPath id="clip11"><rect x="1819" y="598" width="234" height="227"/></clipPath><clipPath id="clip12"><rect x="1819" y="598" width="234" height="227"/></clipPath><clipPath id="clip13"><rect x="1819" y="598" width="234" height="227"/></clipPath></defs><g clip-path="url(#clip1)" transform="translate(-1781 -74)"><g clip-path="url(#clip2)"><g clip-path="url(#clip3)" filter="url(#fx0)" transform="translate(1780 562)"><g clip-path="url(#clip4)"><rect x="21.2229" y="21.2226" width="1044" height="1679" stroke="#B4C7E7" stroke-width="3" stroke-linejoin="round" stroke-miterlimit="10" fill="#D9EBF9"/></g></g></g><rect x="1791.5" y="573.5" width="1044" height="1679" stroke="#B4C7E7" stroke-width="3.4375" stroke-linejoin="round" stroke-miterlimit="10" fill="#D9EBF9"/><path d="M2024.5 1696.34C2024.5 1688.15 2031.15 1681.5 2039.34 1681.5L2591.66 1681.5C2599.85 1681.5 2606.5 1688.15 2606.5 1696.34L2606.5 2141.66C2606.5 2149.85 2599.85 2156.5 2591.66 2156.5L2039.34 2156.5C2031.15 2156.5 2024.5 2149.85 2024.5 2141.66Z" stroke="#0078D4" stroke-width="4.58333" stroke-linejoin="round" stroke-miterlimit="10" fill="#0078D4" fill-rule="evenodd" fill-opacity="0.0117647"/><g clip-path="url(#clip5)"><g clip-path="url(#clip6)"><g clip-path="url(#clip7)"><path d="M-90.1415 56.2294C-92.1001 56.3281-94.0191 56.8137-95.786 57.6578L-172.809 94.46C-176.847 96.3886-179.78 100.036-180.778 104.37L-199.78 187.037C-200.666 190.885-199.945 194.925-197.78 198.237-197.52 198.638-197.241 199.026-196.943 199.4L-143.631 265.685C-140.836 269.16-136.597 271.183-132.115 271.182L-46.621 271.162C-42.1409 271.165-37.9029 269.146-35.1055 265.675L18.1868 199.38C20.9837 195.904 22.0316 191.353 21.0337 187.017L2.00212 104.35C1.00435 100.016-1.92881 96.3689-5.96711 94.4403L-82.9997 57.6578C-85.2221 56.596-87.6779 56.1048-90.1415 56.2294Z" fill="#326CE5" transform="matrix(1.00052 0 0 1 2402.42 1866.81)"/><path d="M-90.1828 50.2435C-92.2481 50.3516-94.2709 50.8674-96.1327 51.7605L-177.45 90.6018C-181.713 92.6379-184.81 96.4883-185.863 101.063L-205.919 188.331C-206.858 192.395-206.097 196.663-203.811 200.162-203.536 200.583-203.24 200.99-202.924 201.383L-146.647 271.362C-143.696 275.03-139.222 277.165-134.491 277.165L-44.2392 277.145C-39.5099 277.148-35.0363 275.016-32.0834 271.353L24.1741 201.363C27.1237 197.695 28.2295 192.895 27.1785 188.321L7.09298 101.044C6.037 96.4723 2.94109 92.6259-1.31952 90.592L-82.6372 51.7506C-84.9853 50.6289-87.58 50.1107-90.1828 50.2435ZM-90.1435 56.2327C-87.6799 56.1081-85.2241 56.5993-83.0017 57.661L-5.96912 94.4436C-1.93079 96.3722 1.00238 100.02 2.00017 104.353L21.0318 187.021C22.0297 191.357 20.9818 195.907 18.1849 199.383L-35.1075 265.679C-37.9048 269.149-42.1429 271.169-46.623 271.165L-132.117 271.185C-136.599 271.186-140.837 269.163-143.633 265.689L-196.945 199.403C-197.243 199.029-197.522 198.641-197.782 198.241-199.947 194.929-200.668 190.889-199.782 187.04L-180.78 104.373C-179.782 100.039-176.849 96.392-172.811 94.4634L-95.7879 57.6611C-94.021 56.8171-92.102 56.3314-90.1434 56.2328Z" fill="#FFFFFF" transform="matrix(1.00052 0 0 1 2402.42 1866.81)"/><text fill="#FFFFFF" font-family="Arial,Arial_MSFontService,sans-serif" font-weight="400" font-size="3" transform="matrix(12.9745 0 0 12.9678 2274.17 2120)">pod</text><path d="M81.2017 91.2426 128.156 77.6264 175.11 91.2426 128.156 104.859Z" fill="#FFFFFF" fill-rule="evenodd" transform="matrix(1.00052 0 0 1 2184.78 1901.8)"/><path d="M81.2017 96.4567 81.2017 146.419 124.95 170.652 125.167 109.533Z" fill="#FFFFFF" fill-rule="evenodd" transform="matrix(1.00052 0 0 1 2184.78 1901.8)"/><path d="M175.11 96.4567 175.11 146.419 131.362 170.652 131.145 109.533Z" fill="#FFFFFF" fill-rule="evenodd" transform="matrix(1.00052 0 0 1 2184.78 1901.8)"/></g></g></g><rect x="2227" y="1682" width="172" height="72.9999" fill="#326CE5"/><text fill="#FFFFFF" font-family="Calibri,Calibri_MSFontService,sans-serif" font-weight="400" font-size="46" transform="matrix(1 0 0 1 2266.03 1734)">8080</text><rect x="2136" y="1763" width="354" height="112" fill="#326CE5"/><text fill="#FFFFFF" font-family="Calibri,Calibri_MSFontService,sans-serif" font-weight="400" font-size="46" transform="matrix(1 0 0 1 2213.61 1835)">10.244.0.2</text><path d="M2024.5 984.343C2024.5 976.146 2031.15 969.5 2039.34 969.5L2591.66 969.5C2599.85 969.5 2606.5 976.146 2606.5 984.343L2606.5 1429.66C2606.5 1437.85 2599.85 1444.5 2591.66 1444.5L2039.34 1444.5C2031.15 1444.5 2024.5 1437.85 2024.5 1429.66Z" stroke="#0078D4" stroke-width="4.58333" stroke-linejoin="round" stroke-miterlimit="10" fill="#0078D4" fill-rule="evenodd" fill-opacity="0.0117647"/><rect x="2227" y="970" width="172" height="72.9998" fill="#326CE5"/><text fill="#FFFFFF" font-family="Calibri,Calibri_MSFontService,sans-serif" font-weight="400" font-size="46" transform="matrix(1 0 0 1 2289.52 1022)">80</text><rect x="2136" y="1051" width="354" height="112" fill="#326CE5"/><text fill="#FFFFFF" font-family="Calibri,Calibri_MSFontService,sans-serif" font-weight="400" font-size="46" transform="matrix(1 0 0 1 2213.61 1123)">10.106.1.1</text><g clip-path="url(#clip8)"><g clip-path="url(#clip9)"><g clip-path="url(#clip10)"><path d="M-90.1416 56.2295C-92.1002 56.3282-94.0193 56.8138-95.7861 57.6579L-172.809 94.4602C-176.847 96.3888-179.78 100.036-180.778 104.37L-199.78 187.037C-200.667 190.885-199.945 194.926-197.781 198.238-197.521 198.638-197.241 199.026-196.943 199.4L-143.631 265.686C-140.836 269.16-136.597 271.183-132.116 271.182L-46.6211 271.163C-42.141 271.166-37.903 269.147-35.1056 265.676L18.1869 199.38C20.9838 195.904 22.0317 191.354 21.0337 187.018L2.00212 104.35C1.00435 100.016-1.92881 96.3691-5.96712 94.4405L-82.9998 57.6579C-85.2223 56.5961-87.678 56.1049-90.1416 56.2295Z" fill="#326CE5" transform="matrix(1.00052 0 0 1 2402.42 1154.81)"/><path d="M-90.183 50.2435C-92.2483 50.3517-94.271 50.8674-96.1328 51.7605L-177.451 90.602C-181.714 92.638-184.81 96.4884-185.863 101.063L-205.919 188.331C-206.858 192.395-206.097 196.663-203.811 200.162-203.536 200.583-203.24 200.991-202.925 201.383L-146.647 271.363C-143.696 275.03-139.223 277.166-134.492 277.165L-44.2392 277.145C-39.51 277.148-35.0364 275.017-32.0834 271.353L24.1741 201.364C27.1238 197.696 28.2295 192.896 27.1786 188.321L7.09299 101.044C6.03701 96.4724 2.94109 92.6261-1.31953 90.5921L-82.6373 51.7507C-84.9854 50.629-87.5802 50.1108-90.183 50.2435ZM-90.1436 56.2328C-87.68 56.1082-85.2243 56.5994-83.0019 57.6611L-5.96913 94.4438C-1.9308 96.3723 1.00238 100.02 2.00017 104.354L21.0318 187.021C22.0297 191.357 20.9818 195.907 18.1849 199.384L-35.1075 265.679C-37.9049 269.15-42.1429 271.169-46.6231 271.166L-132.118 271.186C-136.599 271.187-140.838 269.163-143.633 265.689L-196.945 199.403C-197.243 199.03-197.523 198.642-197.783 198.241-199.947 194.929-200.669 190.889-199.782 187.041L-180.78 104.373C-179.782 100.04-176.849 96.3921-172.811 94.4636L-95.788 57.6612C-94.0212 56.8172-92.1022 56.3315-90.1436 56.2329Z" fill="#FFFFFF" transform="matrix(1.00052 0 0 1 2402.42 1154.81)"/><text fill="#FFFFFF" font-family="Arial,Arial_MSFontService,sans-serif" font-weight="400" font-size="3" transform="matrix(12.9745 0 0 12.9678 2273.68 1408)">svc</text><path d="M58.2902 146.028 96.005 146.028 96.005 172.504 58.2902 172.504Z" fill="#FFFFFF" fill-rule="evenodd" transform="matrix(1.00052 0 0 1 2184.32 1189.8)"/><path d="M109.756 146.028 147.471 146.028 147.471 172.504 109.756 172.504Z" fill="#FFFFFF" fill-rule="evenodd" transform="matrix(1.00052 0 0 1 2184.32 1189.8)"/><path d="M161.222 146.028 198.937 146.028 198.937 172.504 161.222 172.504Z" fill="#FFFFFF" fill-rule="evenodd" transform="matrix(1.00052 0 0 1 2184.32 1189.8)"/><path d="M98.7336 67.5402 158.494 67.5402 158.494 94.0162 98.7336 94.0162Z" fill="#FFFFFF" fill-rule="evenodd" transform="matrix(1.00052 0 0 1 2184.32 1189.8)"/><path d="M128.614 94.0162 128.614 120.023 77.1745 120.023 77.1745 145.996" stroke="#FFFFFF" stroke-width="6.86214" stroke-linejoin="round" stroke-miterlimit="10" fill="none" fill-rule="evenodd" transform="matrix(1.00052 0 0 1 2184.32 1189.8)"/><path d="M128.614 94.0162 128.614 120.023 180.053 120.023 180.053 145.996" stroke="#FFFFFF" stroke-width="6.85998" stroke-linejoin="round" stroke-miterlimit="10" fill="none" fill-rule="evenodd" transform="matrix(1.00052 0 0 1 2184.32 1189.8)"/><path d="M128.505 94.0326 128.505 120.039 128.722 120.039 128.722 146.012" stroke="#FFFFFF" stroke-width="6.86214" stroke-linejoin="round" stroke-miterlimit="10" fill="none" fill-rule="evenodd" transform="matrix(1.00052 0 0 1 2184.32 1189.8)"/></g></g></g><rect x="2136" y="652" width="354" height="112" fill="#326CE5"/><text fill="#FFFFFF" font-family="Calibri,Calibri_MSFontService,sans-serif" font-weight="400" font-size="46" transform="matrix(1 0 0 1 2201.86 724)">192.168.1.2</text><rect x="2215" y="573" width="196" height="72.9999" fill="#326CE5"/><text fill="#FFFFFF" font-family="Calibri,Calibri_MSFontService,sans-serif" font-weight="400" font-size="46" transform="matrix(1 0 0 1 2254.28 625)">30008</text><g clip-path="url(#clip11)"><g clip-path="url(#clip12)"><g clip-path="url(#clip13)"><path d="M-90.1415 56.2294C-92.1001 56.3281-94.0191 56.8137-95.786 57.6578L-172.809 94.46C-176.847 96.3886-179.78 100.036-180.778 104.37L-199.78 187.037C-200.666 190.885-199.945 194.925-197.78 198.237-197.52 198.638-197.241 199.026-196.943 199.4L-143.631 265.685C-140.836 269.16-136.597 271.183-132.115 271.182L-46.621 271.162C-42.1409 271.165-37.9029 269.146-35.1055 265.675L18.1868 199.38C20.9837 195.904 22.0316 191.353 21.0337 187.017L2.00212 104.35C1.00435 100.016-1.92881 96.3689-5.96711 94.4403L-82.9997 57.6578C-85.2221 56.596-87.6779 56.1048-90.1415 56.2294Z" fill="#326CE5" transform="matrix(1.00052 0 0 1 2025.42 547.806)"/><path d="M-90.1828 50.2435C-92.2481 50.3516-94.2709 50.8674-96.1327 51.7605L-177.45 90.6018C-181.713 92.6379-184.81 96.4883-185.863 101.063L-205.919 188.331C-206.858 192.395-206.097 196.663-203.811 200.162-203.536 200.583-203.24 200.99-202.924 201.383L-146.647 271.362C-143.696 275.03-139.222 277.165-134.491 277.165L-44.2392 277.145C-39.5099 277.148-35.0363 275.016-32.0834 271.353L24.1741 201.363C27.1237 197.695 28.2295 192.895 27.1785 188.321L7.09298 101.044C6.037 96.4723 2.94109 92.6259-1.31952 90.592L-82.6372 51.7506C-84.9853 50.6289-87.58 50.1107-90.1828 50.2435ZM-90.1435 56.2327C-87.6799 56.1081-85.2241 56.5993-83.0017 57.661L-5.96912 94.4436C-1.93079 96.3722 1.00238 100.02 2.00017 104.353L21.0318 187.021C22.0297 191.357 20.9818 195.907 18.1849 199.383L-35.1075 265.679C-37.9048 269.149-42.1429 271.169-46.623 271.165L-132.117 271.185C-136.599 271.186-140.837 269.163-143.633 265.689L-196.945 199.403C-197.243 199.029-197.522 198.641-197.782 198.241-199.947 194.929-200.668 190.889-199.782 187.04L-180.78 104.373C-179.782 100.039-176.849 96.392-172.811 94.4634L-95.7879 57.6611C-94.021 56.8171-92.102 56.3314-90.1434 56.2328Z" fill="#FFFFFF" transform="matrix(1.00052 0 0 1 2025.42 547.806)"/><text fill="#FFFFFF" font-family="Arial,Arial_MSFontService,sans-serif" font-weight="400" font-size="3" transform="matrix(12.9745 0 0 12.9678 1883.66 801)">node</text><path d="M129.577 53.0935C127.783 53.0364 77.769 77.6269 77.115 78.888 75.5437 81.9183 64.1615 134.414 64.8305 135.545 65.2195 136.202 73.4176 146.592 83.0448 158.632L100.549 180.522 129.353 180.534 158.163 180.546 176.489 157.649 194.821 134.757 188.405 106.636C184.875 91.1682 181.718 78.2542 181.395 77.9431 180.494 77.0758 130.549 53.1254 129.577 53.094ZM132.12 65.3838 143.907 68.8018 132.12 72.2198 120.333 68.8018ZM120.333 70.1108 131.371 73.3946 131.319 88.7392 120.337 82.6528ZM143.907 70.1108 143.907 82.6528 132.926 88.7392 132.874 73.3946ZM115.41 91.0496 127.197 94.4676 115.41 97.8856 103.624 94.4676ZM144.052 91.0496 155.839 94.4676 144.052 97.8856 132.266 94.4676ZM103.624 95.7766 114.661 99.0548 114.609 114.399 103.628 108.319ZM127.197 95.7766 127.197 108.319 116.216 114.399 116.164 99.0548ZM132.266 95.7766 143.303 99.0548 143.251 114.399 132.27 108.319ZM155.839 95.7766 155.839 108.319 144.858 114.399 144.806 99.0548ZM111.105 115.423C114.614 115.548 111.897 119.079 115.882 120.973 120.133 122.993 121.01 117.921 123.68 121.795 126.352 125.669 121.302 124.69 121.678 129.38 122.054 134.071 126.886 132.296 124.866 136.547 122.847 140.797 121.166 135.929 117.292 138.6 113.418 141.27 117.37 144.567 112.683 144.943 107.992 145.319 111.366 141.436 107.116 139.416 102.866 137.396 101.989 142.463 99.3182 138.588 96.6474 134.714 101.702 135.699 101.326 131.008 100.95 126.318 96.1178 128.092 98.1379 123.842 100.158 119.592 101.832 124.46 105.707 121.789 109.581 119.118 105.629 115.821 110.322 115.445 110.614 115.422 110.872 115.416 111.105 115.422ZM141.397 120.128C147.665 120.304 141.587 126.187 147.31 128.748 153.034 131.31 153.368 122.86 157.676 127.417 161.984 131.974 153.527 131.834 155.763 137.693 157.999 143.552 164.213 137.813 164.037 144.082 163.859 150.351 157.978 144.271 155.416 149.995 152.854 155.719 161.305 156.053 156.747 160.361 152.19 164.669 152.336 156.211 146.477 158.448 140.617 160.684 146.36 166.898 140.088 166.721 133.819 166.545 139.899 160.663 134.175 158.101 128.451 155.539 128.112 163.99 123.804 159.432 119.496 154.875 127.953 155.02 125.717 149.161 123.481 143.302 117.267 149.042 117.443 142.773 117.621 136.504 123.502 142.578 126.064 136.854 128.625 131.13 120.175 130.796 124.732 126.488 129.29 122.18 129.15 130.638 135.009 128.402 140.868 126.165 135.125 119.952 141.397 120.128ZM111.379 123.417C107.571 123.418 104.485 126.507 104.487 130.315 104.488 134.121 107.573 137.206 111.379 137.207 115.187 137.209 118.276 134.123 118.277 130.315 118.279 126.504 115.189 123.415 111.379 123.417ZM140.743 129.649C133.132 129.647 126.962 135.817 126.964 143.427 126.965 151.036 133.134 157.203 140.743 157.2 148.349 157.199 154.515 151.034 154.515 143.427 154.518 135.819 148.351 129.65 140.743 129.649Z" fill="#FFFFFF" transform="matrix(1.00052 0 0 1 1806.12 582.803)"/></g></g></g><path d="M2.29167-4.02589e-06 2.29199 182.515-2.29135 182.515-2.29167 4.02589e-06ZM13.7503 177.932 0.000360892 205.432-13.7497 177.932Z" fill="#4472C4" transform="matrix(-1 0 0 1 2313.5 764.5)"/><path d="M2.2916-0.0173898 3.92217 214.857-0.661036 214.891-2.2916 0.0173898ZM15.3454 210.186 1.80446 237.79-12.1538 210.395Z" fill="#4472C4" transform="matrix(-1 0 0 1 2315.3 1444.5)"/><text fill="#3C3C41" font-family="Segoe UI Semibold,Segoe UI Semibold_MSFontService,sans-serif" font-weight="600" font-size="46" transform="matrix(1 0 0 1 2356.33 1644)">1. Target Port</text><text fill="#3C3C41" font-family="Segoe UI Semibold,Segoe UI Semibold_MSFontService,sans-serif" font-weight="600" font-size="46" transform="matrix(1 0 0 1 2356.33 931)">2</text><text fill="#3C3C41" font-family="Segoe UI Semibold,Segoe UI Semibold_MSFontService,sans-serif" font-weight="600" font-size="46" transform="matrix(1 0 0 1 2381.53 931)">. Port</text><path d="M2247 254.197C2247 217.552 2276.55 188 2313.2 188 2349.45 188 2379 217.552 2379 254.197 2379 290.448 2349.45 320 2313.2 320 2276.55 320 2247 290.448 2247 254.197ZM2313.2 320C2331.72 320 2346.69 290.448 2346.69 254.197 2346.69 217.552 2331.72 188 2313.2 188 2294.28 188 2279.31 217.552 2279.31 254.197 2279.31 290.448 2294.28 320 2313.2 320ZM2250.15 233.707C2375.85 233.707 2375.85 233.707 2375.85 233.707M2250.55 275.081C2375.45 275.081 2375.45 275.081 2375.45 275.081" stroke="#000000" stroke-width="5.72917" stroke-miterlimit="8" fill="none" fill-rule="evenodd"/><text fill="#3C3C41" font-family="Segoe UI Semibold,Segoe UI Semibold_MSFontService,sans-serif" font-weight="600" font-size="64" transform="matrix(1 0 0 1 2197.41 155)">Internet</text><path d="M2.29166-0.00359001 2.6513 229.569-1.93203 229.576-2.29166 0.00359001ZM14.1024 224.968 0.395538 252.489-13.3975 225.011Z" fill="#4472C4" transform="matrix(-1 0 0 1 2313.9 320.5)"/><text font-family="Calibri,Calibri_MSFontService,sans-serif" font-weight="400" font-size="64" transform="matrix(1 0 0 1 2348.67 450)">http://192.168.1.2:30008</text><text fill="#3C3C41" font-family="Segoe UI Semibold,Segoe UI Semibold_MSFontService,sans-serif" font-weight="600" font-size="46" transform="matrix(1 0 0 1 2443.42 626)">3</text><text fill="#3C3C41" font-family="Segoe UI Semibold,Segoe UI Semibold_MSFontService,sans-serif" font-weight="600" font-size="46" transform="matrix(1 0 0 1 2468.62 626)">. Node Port</text></g></svg>