<svg width="3498" height="2265" xmlns="http://www.w3.org/2000/svg" xmlns:xlink="http://www.w3.org/1999/xlink" xml:space="preserve" overflow="hidden"><defs><filter id="fx0" x="-10%" y="-10%" width="120%" height="120%" filterUnits="userSpaceOnUse" primitiveUnits="userSpaceOnUse"><feComponentTransfer color-interpolation-filters="sRGB"><feFuncR type="discrete" tableValues="0 0"/><feFuncG type="discrete" tableValues="0 0"/><feFuncB type="discrete" tableValues="0 0"/><feFuncA type="linear" slope="0.4" intercept="0"/></feComponentTransfer><feGaussianBlur stdDeviation="6.11111 6.11111"/></filter><filter id="fx1" x="-10%" y="-10%" width="120%" height="120%" filterUnits="userSpaceOnUse" primitiveUnits="userSpaceOnUse"><feComponentTransfer color-interpolation-filters="sRGB"><feFuncR type="discrete" tableValues="0 0"/><feFuncG type="discrete" tableValues="0 0"/><feFuncB type="discrete" tableValues="0 0"/><feFuncA type="linear" slope="0.4" intercept="0"/></feComponentTransfer><feGaussianBlur stdDeviation="6.11111 6.11111"/></filter><filter id="fx2" x="-10%" y="-10%" width="120%" height="120%" filterUnits="userSpaceOnUse" primitiveUnits="userSpaceOnUse"><feComponentTransfer color-interpolation-filters="sRGB"><feFuncR type="discrete" tableValues="0 0"/><feFuncG type="discrete" tableValues="0 0"/><feFuncB type="discrete" tableValues="0 0"/><feFuncA type="linear" slope="0.4" intercept="0"/></feComponentTransfer><feGaussianBlur stdDeviation="6.11111 6.11111"/></filter><clipPath id="clip3"><rect x="434" y="41" width="3498" height="2265"/></clipPath><clipPath id="clip4"><path d="M1650.5 595.5 1650.5 2275.5 2695.5 2275.5 2695.5 595.5ZM434 41 3932 41 3932 2306 434 2306Z" fill-rule="evenodd" clip-rule="evenodd"/></clipPath><clipPath id="clip5"><rect x="-3" y="-3" width="1095" height="1728"/></clipPath><clipPath id="clip6"><rect x="0" y="0" width="1088" height="1723"/></clipPath><clipPath id="clip7"><rect x="2055" y="1941" width="235" height="229"/></clipPath><clipPath id="clip8"><rect x="2055" y="1941" width="235" height="229"/></clipPath><clipPath id="clip9"><rect x="2055" y="1941" width="235" height="229"/></clipPath><clipPath id="clip10"><rect x="1678" y="622" width="234" height="228"/></clipPath><clipPath id="clip11"><rect x="1678" y="622" width="234" height="228"/></clipPath><clipPath id="clip12"><rect x="1678" y="622" width="234" height="228"/></clipPath><clipPath id="clip13"><path d="M2857.5 595.5 2857.5 2275.5 3901.5 2275.5 3901.5 595.5ZM434 41 3932 41 3932 2306 434 2306Z" fill-rule="evenodd" clip-rule="evenodd"/></clipPath><clipPath id="clip14"><rect x="-3" y="-3" width="1095" height="1728"/></clipPath><clipPath id="clip15"><rect x="0" y="0" width="1087" height="1723"/></clipPath><clipPath id="clip16"><rect x="3261" y="1940" width="235" height="226"/></clipPath><clipPath id="clip17"><rect x="3261" y="1940" width="235" height="226"/></clipPath><clipPath id="clip18"><rect x="3261" y="1940" width="235" height="226"/></clipPath><clipPath id="clip19"><rect x="2885" y="620" width="234" height="227"/></clipPath><clipPath id="clip20"><rect x="2885" y="620" width="234" height="227"/></clipPath><clipPath id="clip21"><rect x="2885" y="620" width="234" height="227"/></clipPath><clipPath id="clip22"><path d="M444.5 595.5 444.5 2275.5 1488.5 2275.5 1488.5 595.5ZM434 41 3932 41 3932 2306 434 2306Z" fill-rule="evenodd" clip-rule="evenodd"/></clipPath><clipPath id="clip23"><rect x="-3" y="-3" width="1095" height="1728"/></clipPath><clipPath id="clip24"><rect x="0" y="0" width="1087" height="1723"/></clipPath><clipPath id="clip25"><rect x="849" y="1940" width="235" height="226"/></clipPath><clipPath id="clip26"><rect x="849" y="1940" width="235" height="226"/></clipPath><clipPath id="clip27"><rect x="849" y="1940" width="235" height="226"/></clipPath><clipPath id="clip28"><rect x="471" y="620" width="236" height="227"/></clipPath><clipPath id="clip29"><rect x="471" y="620" width="236" height="227"/></clipPath><clipPath id="clip30"><rect x="471" y="620" width="236" height="227"/></clipPath><clipPath id="clip31"><rect x="2055" y="1229" width="235" height="229"/></clipPath><clipPath id="clip32"><rect x="2055" y="1229" width="235" height="229"/></clipPath><clipPath id="clip33"><rect x="2055" y="1229" width="235" height="229"/></clipPath></defs><g clip-path="url(#clip3)" transform="translate(-434 -41)"><g clip-path="url(#clip4)"><g clip-path="url(#clip5)" filter="url(#fx0)" transform="translate(1639 584)"><g clip-path="url(#clip6)"><rect x="21.2225" y="21.2226" width="1045" height="1680" stroke="#B4C7E7" stroke-width="3" stroke-linejoin="round" stroke-miterlimit="10" fill="#D9EBF9"/></g></g></g><rect x="1650.5" y="595.5" width="1045" height="1680" stroke="#B4C7E7" stroke-width="3.4375" stroke-linejoin="round" stroke-miterlimit="10" fill="#D9EBF9"/><path d="M1883.5 1721.31C1883.5 1713.13 1890.13 1706.5 1898.31 1706.5L2450.69 1706.5C2458.87 1706.5 2465.5 1713.13 2465.5 1721.31L2465.5 2165.69C2465.5 2173.87 2458.87 2180.5 2450.69 2180.5L1898.31 2180.5C1890.13 2180.5 1883.5 2173.87 1883.5 2165.69Z" stroke="#0078D4" stroke-width="4.58333" stroke-linejoin="round" stroke-miterlimit="10" fill="#0078D4" fill-rule="evenodd" fill-opacity="0.0117647"/><g clip-path="url(#clip7)"><g clip-path="url(#clip8)"><g clip-path="url(#clip9)"><path d="M-89.8029 56.0182C-91.7541 56.1165-93.6659 56.6003-95.4261 57.4412L-172.16 94.1052C-176.183 96.0265-179.105 99.6602-180.099 103.978L-199.029 186.334C-199.913 190.168-199.194 194.193-197.037 197.493-196.778 197.892-196.5 198.278-196.203 198.651L-143.091 264.687C-140.306 268.149-136.084 270.164-131.619 270.163L-46.4459 270.143C-41.9826 270.147-37.7605 268.135-34.9737 264.677L18.1185 198.631C20.9049 195.168 21.9489 190.634 20.9547 186.315L1.9946 103.958C1.00057 99.6406-1.92156 96.0069-5.9447 94.0856L-82.6879 57.4412C-84.902 56.3834-87.3485 55.8941-89.8029 56.0182Z" fill="#326CE5" transform="matrix(1 0 0 1.00377 2261.54 1891.81)"/><path d="M-89.8441 50.0547C-91.9016 50.1625-93.9167 50.6763-95.7715 51.566L-176.784 90.2615C-181.031 92.2899-184.115 96.1258-185.165 100.684L-205.145 187.623C-206.081 191.672-205.323 195.924-203.045 199.41-202.771 199.829-202.476 200.235-202.162 200.626L-146.096 270.343C-143.156 273.997-138.699 276.124-133.986 276.123L-44.073 276.104C-39.3615 276.107-34.9047 273.983-31.9628 270.333L24.0833 200.607C27.0218 196.953 28.1234 192.171 27.0764 187.613L7.06633 100.664C6.01433 96.1099 2.93004 92.278-1.31457 90.2517L-82.3268 51.5562C-84.666 50.4387-87.251 49.9224-89.8441 50.0547ZM-89.8049 56.0214C-87.3505 55.8973-84.904 56.3866-82.6899 57.4444L-5.94669 94.0888C-1.92354 96.0101 0.998616 99.6439 1.99265 103.961L20.9527 186.318C21.9469 190.638 20.903 195.171 18.1166 198.634L-34.9756 264.681C-37.7625 268.138-41.9846 270.15-46.4478 270.147L-131.621 270.166C-136.086 270.167-140.308 268.152-143.093 264.69L-196.205 198.654C-196.502 198.282-196.78 197.895-197.039 197.496-199.196 194.196-199.915 190.171-199.031 186.338L-180.101 103.981C-179.107 99.6636-176.185 96.0299-172.161 94.1086L-95.428 57.4445C-93.6678 56.6036-91.756 56.1198-89.8048 56.0215Z" fill="#FFFFFF" transform="matrix(1 0 0 1.00377 2261.54 1891.81)"/><text fill="#FFFFFF" font-family="Arial,Arial_MSFontService,sans-serif" font-weight="400" font-size="3" transform="matrix(12.9191 0 0 12.9678 2133.83 2145)">pod</text><path d="M80.8966 90.8998 127.675 77.3348 174.452 90.8998 127.675 104.465Z" fill="#FFFFFF" fill-rule="evenodd" transform="matrix(1 0 0 1.00377 2044.83 1926.8)"/><path d="M80.8966 96.0944 80.8966 145.869 124.481 170.011 124.696 109.121Z" fill="#FFFFFF" fill-rule="evenodd" transform="matrix(1 0 0 1.00377 2044.83 1926.8)"/><path d="M174.452 96.0944 174.452 145.869 130.868 170.011 130.653 109.121Z" fill="#FFFFFF" fill-rule="evenodd" transform="matrix(1 0 0 1.00377 2044.83 1926.8)"/></g></g></g><rect x="2087" y="1706" width="171" height="72.9999" fill="#326CE5"/><text fill="#FFFFFF" font-family="Calibri,Calibri_MSFontService,sans-serif" font-weight="400" font-size="46" transform="matrix(1 0 0 1 2125.47 1758)">8080</text><rect x="1996" y="1788" width="353" height="112" fill="#326CE5"/><text fill="#FFFFFF" font-family="Calibri,Calibri_MSFontService,sans-serif" font-weight="400" font-size="46" transform="matrix(1 0 0 1 2073.05 1859)">10.244.0.3</text><rect x="1996" y="677" width="353" height="112" fill="#326CE5"/><text fill="#FFFFFF" font-family="Calibri,Calibri_MSFontService,sans-serif" font-weight="400" font-size="46" transform="matrix(1 0 0 1 2061.31 748)">192.168.1.3</text><rect x="2074" y="597" width="196" height="72.9999" fill="#326CE5"/><text fill="#FFFFFF" font-family="Calibri,Calibri_MSFontService,sans-serif" font-weight="400" font-size="46" transform="matrix(1 0 0 1 2113.73 649)">30008</text><g clip-path="url(#clip10)"><g clip-path="url(#clip11)"><g clip-path="url(#clip12)"><path d="M-89.7445 55.9818C-91.6945 56.08-93.6051 56.5635-95.3641 57.4038L-172.048 94.0441C-176.068 95.9641-178.988 99.5955-179.982 103.91L-198.9 186.213C-199.783 190.044-199.065 194.067-196.909 197.364-196.651 197.763-196.372 198.15-196.076 198.522L-142.998 264.515C-140.215 267.974-135.996 269.989-131.534 269.988L-46.4157 269.968C-41.9554 269.971-37.736 267.961-34.9509 264.505L18.1068 198.502C20.8913 195.041 21.9346 190.511 20.9411 186.194L1.9933 103.891C0.999922 99.5759-1.92032 95.9445-5.94084 94.0244L-82.6342 57.4038C-84.8468 56.3467-87.2917 55.8578-89.7445 55.9818Z" fill="#326CE5" transform="matrix(1.00065 0 0 1 1884.54 573.027)"/><path d="M-89.7857 50.0222C-91.8419 50.1299-93.8557 50.6434-95.7093 51.5325L-176.669 90.2028C-180.913 92.2299-183.996 96.0634-185.044 100.618L-205.012 187.501C-205.947 191.548-205.189 195.797-202.913 199.28-202.639 199.699-202.345 200.105-202.031 200.496L-146.001 270.167C-143.063 273.819-138.609 275.945-133.899 275.944L-44.0443 275.924C-39.3359 275.928-34.882 273.805-31.9421 270.158L24.0676 200.476C27.0043 196.825 28.1052 192.046 27.0589 187.492L7.06174 100.599C6.01042 96.0474 2.92814 92.218-1.31371 90.193L-82.2733 51.5227C-84.611 50.406-87.1943 49.89-89.7857 50.0222ZM-89.7465 55.985C-87.2937 55.861-84.8488 56.35-82.6362 57.4071L-5.94283 94.0277C-1.92229 95.9478 0.997967 99.5791 1.99136 103.894L20.9391 186.197C21.9327 190.514 20.8894 195.044 18.1048 198.505L-34.9529 264.509C-37.7379 267.964-41.9573 269.975-46.4177 269.971L-131.536 269.991C-135.998 269.992-140.217 267.978-143 264.518L-196.078 198.525C-196.374 198.153-196.653 197.767-196.911 197.368-199.067 194.07-199.785 190.048-198.902 186.217L-179.984 103.914C-178.99 99.5988-176.07 95.9675-172.05 94.0474L-95.3661 57.4072C-93.607 56.5668-91.6964 56.0834-89.7464 55.9851Z" fill="#FFFFFF" transform="matrix(1.00065 0 0 1 1884.54 573.027)"/><text fill="#FFFFFF" font-family="Arial,Arial_MSFontService,sans-serif" font-weight="400" font-size="3" transform="matrix(12.9191 0 0 12.9107 1743.39 825)">node</text><path d="M129.006 52.8597C127.22 52.8029 77.4265 77.2851 76.7754 78.5406 75.211 81.5576 63.8789 133.822 64.545 134.948 64.9323 135.602 73.0943 145.946 82.6791 157.934L100.106 179.727 128.783 179.739 157.466 179.751 175.712 156.954 193.963 134.164 187.575 106.166C184.061 90.7667 180.917 77.9096 180.596 77.5999 179.699 76.7364 129.974 52.8915 129.006 52.8602ZM131.538 65.0958 143.273 68.4988 131.538 71.9017 119.803 68.4988ZM119.803 69.802 130.792 73.0713 130.74 88.3484 119.807 82.2888ZM143.273 69.802 143.273 82.2888 132.341 88.3484 132.289 73.0713ZM114.902 90.6486 126.637 94.0516 114.902 97.4545 103.167 94.0516ZM143.418 90.6486 155.153 94.0516 143.418 97.4545 131.683 94.0516ZM103.167 95.3548 114.156 98.6186 114.104 113.896 103.171 107.842ZM126.637 95.3548 126.637 107.842 115.704 113.896 115.653 98.6186ZM131.683 95.3548 142.672 98.6186 142.62 113.896 131.687 107.842ZM155.153 95.3548 155.153 107.842 144.22 113.896 144.168 98.6186ZM110.616 114.915C114.11 115.039 111.404 118.555 115.372 120.44 119.604 122.451 120.477 117.401 123.136 121.259 125.795 125.116 120.768 124.141 121.142 128.811 121.516 133.481 126.328 131.714 124.317 135.945 122.306 140.177 120.633 135.33 116.776 137.989 112.919 140.648 116.853 143.931 112.186 144.305 107.516 144.679 110.876 140.813 106.645 138.802 102.413 136.791 101.54 141.835 98.8808 137.978 96.2217 134.121 101.254 135.101 100.88 130.431 100.506 125.761 95.6945 127.528 97.7057 123.297 99.7165 119.065 101.384 123.912 105.241 121.253 109.099 118.594 105.164 115.311 109.836 114.937 110.127 114.914 110.383 114.907 110.616 114.914ZM140.774 119.599C147.015 119.774 140.963 125.631 146.661 128.181 152.361 130.732 152.692 122.319 156.982 126.856 161.271 131.393 152.851 131.254 155.077 137.087 157.303 142.92 163.49 137.206 163.314 143.447 163.137 149.689 157.282 143.635 154.732 149.334 152.181 155.033 160.594 155.365 156.057 159.655 151.52 163.944 151.665 155.524 145.831 157.75 139.998 159.976 145.715 166.163 139.471 165.987 133.23 165.812 139.283 159.955 133.584 157.405 127.885 154.854 127.547 163.267 123.258 158.73 118.969 154.193 127.39 154.338 125.163 148.504 122.937 142.671 116.75 148.386 116.926 142.144 117.103 135.903 122.958 141.951 125.509 136.252 128.059 130.553 119.646 130.22 124.183 125.931 128.72 121.642 128.581 130.062 134.414 127.836 140.248 125.61 134.53 119.423 140.774 119.599ZM110.889 122.874C107.097 122.875 104.025 125.95 104.027 129.741 104.028 133.53 107.1 136.601 110.889 136.602 114.68 136.605 117.755 133.532 117.756 129.741 117.758 125.947 114.682 122.872 110.889 122.874ZM140.123 129.078C132.546 129.076 126.403 135.219 126.405 142.796 126.406 150.371 132.548 156.51 140.123 156.508 147.696 156.507 153.834 150.368 153.835 142.796 153.837 135.221 147.698 129.079 140.123 129.078Z" fill="#FFFFFF" transform="matrix(1.00065 0 0 1 1666.18 607.869)"/></g></g></g><path d="M2.29167-4.02589e-06 2.29199 182.515-2.29135 182.515-2.29167 4.02589e-06ZM13.7503 177.932 0.000360892 205.432-13.7497 177.932Z" fill="#4472C4" transform="matrix(-1 0 0 1 2172.5 789.5)"/><path d="M2.2916-0.0173863 3.92184 214.857-0.661362 214.891-2.2916 0.0173863ZM15.3451 210.186 1.8041 237.79-12.1541 210.395Z" fill="#4472C4" transform="matrix(-1 0 0 1 2174.3 1468.5)"/><g clip-path="url(#clip13)"><g clip-path="url(#clip14)" filter="url(#fx1)" transform="translate(2846 584)"><g clip-path="url(#clip15)"><rect x="21.2229" y="21.2226" width="1044" height="1680" stroke="#B4C7E7" stroke-width="3" stroke-linejoin="round" stroke-miterlimit="10" fill="#D9EBF9"/></g></g></g><rect x="2857.5" y="595.5" width="1044" height="1680" stroke="#B4C7E7" stroke-width="3.4375" stroke-linejoin="round" stroke-miterlimit="10" fill="#D9EBF9"/><path d="M3090.5 1719.31C3090.5 1711.13 3097.13 1704.5 3105.31 1704.5L3657.69 1704.5C3665.87 1704.5 3672.5 1711.13 3672.5 1719.31L3672.5 2163.69C3672.5 2171.87 3665.87 2178.5 3657.69 2178.5L3105.31 2178.5C3097.13 2178.5 3090.5 2171.87 3090.5 2163.69Z" stroke="#0078D4" stroke-width="4.58333" stroke-linejoin="round" stroke-miterlimit="10" fill="#0078D4" fill-rule="evenodd" fill-opacity="0.0117647"/><g clip-path="url(#clip16)"><g clip-path="url(#clip17)"><g clip-path="url(#clip18)"><path d="M-89.7444 55.9817C-91.6944 56.0799-93.6049 56.5634-95.364 57.4038L-172.047 94.0439C-176.068 95.964-178.988 99.5953-179.982 103.91L-198.9 186.213C-199.782 190.044-199.064 194.066-196.909 197.364-196.65 197.763-196.372 198.149-196.075 198.521L-142.998 264.515C-140.215 267.974-135.995 269.988-131.533 269.987L-46.4156 269.968C-41.9553 269.971-37.7359 267.96-34.9509 264.505L18.1067 198.502C20.8913 195.041 21.9346 190.51 20.941 186.194L1.9933 103.89C0.99992 99.5757-1.92031 95.9444-5.94083 94.0243L-82.6341 57.4038C-84.8467 56.3466-87.2916 55.8577-89.7444 55.9817Z" fill="#326CE5" transform="matrix(1.00495 0 0 1 3468.42 1890.03)"/><path d="M-89.7856 50.0221C-91.8417 50.1298-93.8556 50.6433-95.7092 51.5324L-176.669 90.2027C-180.913 92.2297-183.995 96.0632-185.044 100.618L-205.012 187.501C-205.946 191.547-205.189 195.796-202.913 199.28-202.639 199.699-202.344 200.105-202.03 200.496L-146.001 270.167C-143.063 273.818-138.609 275.944-133.899 275.944L-44.0443 275.924C-39.3359 275.927-34.882 273.805-31.942 270.157L24.0676 200.476C27.0042 196.824 28.1051 192.045 27.0588 187.491L7.06173 100.598C6.01041 96.0473 2.92813 92.2179-1.31371 90.1929L-82.2731 51.5226C-84.6109 50.4059-87.1942 49.8899-89.7856 50.0221ZM-89.7464 55.985C-87.2936 55.8609-84.8487 56.3499-82.6361 57.407L-5.94282 94.0275C-1.92229 95.9476 0.997965 99.579 1.99135 103.894L20.9391 186.197C21.9326 190.513 20.8893 195.044 18.1048 198.505L-34.9528 264.508C-37.7379 267.964-41.9572 269.974-46.4176 269.971L-131.535 269.991C-135.997 269.991-140.217 267.977-143 264.518L-196.077 198.525C-196.374 198.153-196.652 197.766-196.911 197.367-199.066 194.07-199.784 190.048-198.902 186.216L-179.983 103.913C-178.99 99.5987-176.07 95.9673-172.049 94.0473L-95.3659 57.4071C-93.6068 56.5668-91.6963 56.0833-89.7463 55.985Z" fill="#FFFFFF" transform="matrix(1.00495 0 0 1 3468.42 1890.03)"/><text fill="#FFFFFF" font-family="Arial,Arial_MSFontService,sans-serif" font-weight="400" font-size="3" transform="matrix(12.9745 0 0 12.9107 3340.17 2142)">pod</text><path d="M80.8439 90.8406 127.591 77.2844 174.339 90.8406 127.591 104.397Z" fill="#FFFFFF" fill-rule="evenodd" transform="matrix(1.00495 0 0 1 3250.78 1924.87)"/><path d="M80.8439 96.0318 80.8439 145.774 124.4 169.901 124.615 109.05Z" fill="#FFFFFF" fill-rule="evenodd" transform="matrix(1.00495 0 0 1 3250.78 1924.87)"/><path d="M174.339 96.0318 174.339 145.774 130.783 169.901 130.568 109.05Z" fill="#FFFFFF" fill-rule="evenodd" transform="matrix(1.00495 0 0 1 3250.78 1924.87)"/></g></g></g><rect x="3293" y="1704" width="172" height="72.9999" fill="#326CE5"/><text fill="#FFFFFF" font-family="Calibri,Calibri_MSFontService,sans-serif" font-weight="400" font-size="46" transform="matrix(1 0 0 1 3332.09 1756)">8080</text><rect x="3202" y="1786" width="354" height="112" fill="#326CE5"/><text fill="#FFFFFF" font-family="Calibri,Calibri_MSFontService,sans-serif" font-weight="400" font-size="46" transform="matrix(1 0 0 1 3279.67 1857)">10.244.0.4</text><rect x="3202" y="674" width="354" height="113" fill="#326CE5"/><text fill="#FFFFFF" font-family="Calibri,Calibri_MSFontService,sans-serif" font-weight="400" font-size="46" transform="matrix(1 0 0 1 3267.92 746)">192.168.1.4</text><rect x="3281" y="595" width="196" height="72.9999" fill="#326CE5"/><text fill="#FFFFFF" font-family="Calibri,Calibri_MSFontService,sans-serif" font-weight="400" font-size="46" transform="matrix(1 0 0 1 3320.35 647)">30008</text><g clip-path="url(#clip19)"><g clip-path="url(#clip20)"><g clip-path="url(#clip21)"><path d="M-90.1415 56.2294C-92.1001 56.3281-94.0191 56.8137-95.786 57.6578L-172.809 94.46C-176.847 96.3886-179.78 100.036-180.778 104.37L-199.78 187.037C-200.666 190.885-199.945 194.925-197.78 198.237-197.52 198.638-197.241 199.026-196.943 199.4L-143.631 265.685C-140.836 269.16-136.597 271.183-132.115 271.182L-46.621 271.162C-42.1409 271.165-37.9029 269.146-35.1055 265.675L18.1868 199.38C20.9837 195.904 22.0316 191.353 21.0337 187.017L2.00212 104.35C1.00435 100.016-1.92881 96.3689-5.96711 94.4403L-82.9997 57.6578C-85.2221 56.596-87.6779 56.1048-90.1415 56.2294Z" fill="#326CE5" transform="matrix(1.00052 0 0 1 3091.42 569.806)"/><path d="M-90.1828 50.2435C-92.2481 50.3516-94.2709 50.8674-96.1327 51.7605L-177.45 90.6018C-181.713 92.6379-184.81 96.4883-185.863 101.063L-205.919 188.331C-206.858 192.395-206.097 196.663-203.811 200.162-203.536 200.583-203.24 200.99-202.924 201.383L-146.647 271.362C-143.696 275.03-139.222 277.165-134.491 277.165L-44.2392 277.145C-39.5099 277.148-35.0363 275.016-32.0834 271.353L24.1741 201.363C27.1237 197.695 28.2295 192.895 27.1785 188.321L7.09298 101.044C6.037 96.4723 2.94109 92.6259-1.31952 90.592L-82.6372 51.7506C-84.9853 50.6289-87.58 50.1107-90.1828 50.2435ZM-90.1435 56.2327C-87.6799 56.1081-85.2241 56.5993-83.0017 57.661L-5.96912 94.4436C-1.93079 96.3722 1.00238 100.02 2.00017 104.353L21.0318 187.021C22.0297 191.357 20.9818 195.907 18.1849 199.383L-35.1075 265.679C-37.9048 269.149-42.1429 271.169-46.623 271.165L-132.117 271.185C-136.599 271.186-140.837 269.163-143.633 265.689L-196.945 199.403C-197.243 199.029-197.522 198.641-197.782 198.241-199.947 194.929-200.668 190.889-199.782 187.04L-180.78 104.373C-179.782 100.039-176.849 96.392-172.811 94.4634L-95.7879 57.6611C-94.021 56.8171-92.102 56.3314-90.1434 56.2328Z" fill="#FFFFFF" transform="matrix(1.00052 0 0 1 3091.42 569.806)"/><text fill="#FFFFFF" font-family="Arial,Arial_MSFontService,sans-serif" font-weight="400" font-size="3" transform="matrix(12.9745 0 0 12.9678 2949.66 823)">node</text><path d="M129.577 53.0935C127.783 53.0364 77.769 77.6269 77.115 78.888 75.5437 81.9183 64.1615 134.414 64.8305 135.545 65.2195 136.202 73.4176 146.592 83.0448 158.632L100.549 180.522 129.353 180.534 158.163 180.546 176.489 157.649 194.821 134.757 188.405 106.636C184.875 91.1682 181.718 78.2542 181.395 77.9431 180.494 77.0758 130.549 53.1254 129.577 53.094ZM132.12 65.3838 143.907 68.8018 132.12 72.2198 120.333 68.8018ZM120.333 70.1108 131.371 73.3946 131.319 88.7392 120.337 82.6528ZM143.907 70.1108 143.907 82.6528 132.926 88.7392 132.874 73.3946ZM115.41 91.0496 127.197 94.4676 115.41 97.8856 103.624 94.4676ZM144.052 91.0496 155.839 94.4676 144.052 97.8856 132.266 94.4676ZM103.624 95.7766 114.661 99.0548 114.609 114.399 103.628 108.319ZM127.197 95.7766 127.197 108.319 116.216 114.399 116.164 99.0548ZM132.266 95.7766 143.303 99.0548 143.251 114.399 132.27 108.319ZM155.839 95.7766 155.839 108.319 144.858 114.399 144.806 99.0548ZM111.105 115.423C114.614 115.548 111.897 119.079 115.882 120.973 120.133 122.993 121.01 117.921 123.68 121.795 126.352 125.669 121.302 124.69 121.678 129.38 122.054 134.071 126.886 132.296 124.866 136.547 122.847 140.797 121.166 135.929 117.292 138.6 113.418 141.27 117.37 144.567 112.683 144.943 107.992 145.319 111.366 141.436 107.116 139.416 102.866 137.396 101.989 142.463 99.3182 138.588 96.6474 134.714 101.702 135.699 101.326 131.008 100.95 126.318 96.1178 128.092 98.1379 123.842 100.158 119.592 101.832 124.46 105.707 121.789 109.581 119.118 105.629 115.821 110.322 115.445 110.614 115.422 110.872 115.416 111.105 115.422ZM141.397 120.128C147.665 120.304 141.587 126.187 147.31 128.748 153.034 131.31 153.368 122.86 157.676 127.417 161.984 131.974 153.527 131.834 155.763 137.693 157.999 143.552 164.213 137.813 164.037 144.082 163.859 150.351 157.978 144.271 155.416 149.995 152.854 155.719 161.305 156.053 156.747 160.361 152.19 164.669 152.336 156.211 146.477 158.448 140.617 160.684 146.36 166.898 140.088 166.721 133.819 166.545 139.899 160.663 134.175 158.101 128.451 155.539 128.112 163.99 123.804 159.432 119.496 154.875 127.953 155.02 125.717 149.161 123.481 143.302 117.267 149.042 117.443 142.773 117.621 136.504 123.502 142.578 126.064 136.854 128.625 131.13 120.175 130.796 124.732 126.488 129.29 122.18 129.15 130.638 135.009 128.402 140.868 126.165 135.125 119.952 141.397 120.128ZM111.379 123.417C107.571 123.418 104.485 126.507 104.487 130.315 104.488 134.121 107.573 137.206 111.379 137.207 115.187 137.209 118.276 134.123 118.277 130.315 118.279 126.504 115.189 123.415 111.379 123.417ZM140.743 129.649C133.132 129.647 126.962 135.817 126.964 143.427 126.965 151.036 133.134 157.203 140.743 157.2 148.349 157.199 154.515 151.034 154.515 143.427 154.518 135.819 148.351 129.65 140.743 129.649Z" fill="#FFFFFF" transform="matrix(1.00052 0 0 1 2872.12 604.803)"/></g></g></g><path d="M2.29167-4.02589e-06 2.29199 182.515-2.29135 182.515-2.29167 4.02589e-06ZM13.7503 177.932 0.000360892 205.432-13.7497 177.932Z" fill="#4472C4" transform="matrix(-1 0 0 1 3379.5 787.5)"/><g clip-path="url(#clip22)"><g clip-path="url(#clip23)" filter="url(#fx2)" transform="translate(433 584)"><g clip-path="url(#clip24)"><rect x="21.2227" y="21.2226" width="1044" height="1680" stroke="#B4C7E7" stroke-width="3" stroke-linejoin="round" stroke-miterlimit="10" fill="#D9EBF9"/></g></g></g><rect x="444.5" y="595.5" width="1044" height="1680" stroke="#B4C7E7" stroke-width="3.4375" stroke-linejoin="round" stroke-miterlimit="10" fill="#D9EBF9"/><path d="M677.5 1719.31C677.5 1711.13 684.132 1704.5 692.312 1704.5L1243.69 1704.5C1251.87 1704.5 1258.5 1711.13 1258.5 1719.31L1258.5 2163.69C1258.5 2171.87 1251.87 2178.5 1243.69 2178.5L692.312 2178.5C684.132 2178.5 677.5 2171.87 677.5 2163.69Z" stroke="#0078D4" stroke-width="4.58333" stroke-linejoin="round" stroke-miterlimit="10" fill="#0078D4" fill-rule="evenodd" fill-opacity="0.0117647"/><g clip-path="url(#clip25)"><g clip-path="url(#clip26)"><g clip-path="url(#clip27)"><path d="M-89.7444 55.9817C-91.6944 56.0799-93.6049 56.5634-95.364 57.4038L-172.047 94.0439C-176.068 95.964-178.988 99.5953-179.982 103.91L-198.9 186.213C-199.782 190.044-199.064 194.066-196.909 197.364-196.65 197.763-196.372 198.149-196.075 198.521L-142.998 264.515C-140.215 267.974-135.995 269.988-131.533 269.987L-46.4156 269.968C-41.9553 269.971-37.7359 267.96-34.9509 264.505L18.1067 198.502C20.8913 195.041 21.9346 190.51 20.941 186.194L1.9933 103.89C0.99992 99.5757-1.92031 95.9444-5.94083 94.0243L-82.6341 57.4038C-84.8467 56.3466-87.2916 55.8577-89.7444 55.9817Z" fill="#326CE5" transform="matrix(1.00495 0 0 1 1055.42 1890.03)"/><path d="M-89.7856 50.0221C-91.8417 50.1298-93.8556 50.6433-95.7092 51.5324L-176.669 90.2027C-180.913 92.2297-183.995 96.0632-185.044 100.618L-205.012 187.501C-205.946 191.547-205.189 195.796-202.913 199.28-202.639 199.699-202.344 200.105-202.03 200.496L-146.001 270.167C-143.063 273.818-138.609 275.944-133.899 275.944L-44.0443 275.924C-39.3359 275.927-34.882 273.805-31.942 270.157L24.0676 200.476C27.0042 196.824 28.1051 192.045 27.0588 187.491L7.06173 100.598C6.01041 96.0473 2.92813 92.2179-1.31371 90.1929L-82.2731 51.5226C-84.6109 50.4059-87.1942 49.8899-89.7856 50.0221ZM-89.7464 55.985C-87.2936 55.8609-84.8487 56.3499-82.6361 57.407L-5.94282 94.0275C-1.92229 95.9476 0.997965 99.579 1.99135 103.894L20.9391 186.197C21.9326 190.513 20.8893 195.044 18.1048 198.505L-34.9528 264.508C-37.7379 267.964-41.9572 269.974-46.4176 269.971L-131.535 269.991C-135.997 269.991-140.217 267.977-143 264.518L-196.077 198.525C-196.374 198.153-196.652 197.766-196.911 197.367-199.066 194.07-199.784 190.048-198.902 186.216L-179.983 103.913C-178.99 99.5987-176.07 95.9673-172.049 94.0473L-95.3659 57.4071C-93.6068 56.5668-91.6963 56.0833-89.7463 55.985Z" fill="#FFFFFF" transform="matrix(1.00495 0 0 1 1055.42 1890.03)"/><text fill="#FFFFFF" font-family="Arial,Arial_MSFontService,sans-serif" font-weight="400" font-size="3" transform="matrix(12.9745 0 0 12.9107 927.166 2142)">pod</text><path d="M80.8439 90.8406 127.591 77.2844 174.339 90.8406 127.591 104.397Z" fill="#FFFFFF" fill-rule="evenodd" transform="matrix(1.00495 0 0 1 837.778 1924.87)"/><path d="M80.8439 96.0318 80.8439 145.774 124.4 169.901 124.615 109.05Z" fill="#FFFFFF" fill-rule="evenodd" transform="matrix(1.00495 0 0 1 837.778 1924.87)"/><path d="M174.339 96.0318 174.339 145.774 130.783 169.901 130.568 109.05Z" fill="#FFFFFF" fill-rule="evenodd" transform="matrix(1.00495 0 0 1 837.778 1924.87)"/></g></g></g><rect x="880" y="1704" width="171" height="72.9999" fill="#326CE5"/><text fill="#FFFFFF" font-family="Calibri,Calibri_MSFontService,sans-serif" font-weight="400" font-size="46" transform="matrix(1 0 0 1 918.856 1756)">8080</text><rect x="789" y="1786" width="354" height="112" fill="#326CE5"/><text fill="#FFFFFF" font-family="Calibri,Calibri_MSFontService,sans-serif" font-weight="400" font-size="46" transform="matrix(1 0 0 1 866.435 1857)">10.244.0.2</text><rect x="789" y="674" width="354" height="113" fill="#326CE5"/><text fill="#FFFFFF" font-family="Calibri,Calibri_MSFontService,sans-serif" font-weight="400" font-size="46" transform="matrix(1 0 0 1 854.69 746)">192.168.1.2</text><rect x="868" y="595" width="196" height="72.9999" fill="#326CE5"/><text fill="#FFFFFF" font-family="Calibri,Calibri_MSFontService,sans-serif" font-weight="400" font-size="46" transform="matrix(1 0 0 1 907.111 647)">30008</text><g clip-path="url(#clip28)"><g clip-path="url(#clip29)"><g clip-path="url(#clip30)"><path d="M-90.1415 56.2294C-92.1001 56.3281-94.0191 56.8137-95.786 57.6578L-172.809 94.46C-176.847 96.3886-179.78 100.036-180.778 104.37L-199.78 187.037C-200.666 190.885-199.945 194.925-197.78 198.237-197.52 198.638-197.241 199.026-196.943 199.4L-143.631 265.685C-140.836 269.16-136.597 271.183-132.115 271.182L-46.621 271.162C-42.1409 271.165-37.9029 269.146-35.1055 265.675L18.1868 199.38C20.9837 195.904 22.0316 191.353 21.0337 187.017L2.00212 104.35C1.00435 100.016-1.92881 96.3689-5.96711 94.4403L-82.9997 57.6578C-85.2221 56.596-87.6779 56.1048-90.1415 56.2294Z" fill="#326CE5" transform="matrix(1.00052 0 0 1 678.419 569.806)"/><path d="M-90.1828 50.2435C-92.2481 50.3516-94.2709 50.8674-96.1327 51.7605L-177.45 90.6018C-181.713 92.6379-184.81 96.4883-185.863 101.063L-205.919 188.331C-206.858 192.395-206.097 196.663-203.811 200.162-203.536 200.583-203.24 200.99-202.924 201.383L-146.647 271.362C-143.696 275.03-139.222 277.165-134.491 277.165L-44.2392 277.145C-39.5099 277.148-35.0363 275.016-32.0834 271.353L24.1741 201.363C27.1237 197.695 28.2295 192.895 27.1785 188.321L7.09298 101.044C6.037 96.4723 2.94109 92.6259-1.31952 90.592L-82.6372 51.7506C-84.9853 50.6289-87.58 50.1107-90.1828 50.2435ZM-90.1435 56.2327C-87.6799 56.1081-85.2241 56.5993-83.0017 57.661L-5.96912 94.4436C-1.93079 96.3722 1.00238 100.02 2.00017 104.353L21.0318 187.021C22.0297 191.357 20.9818 195.907 18.1849 199.383L-35.1075 265.679C-37.9048 269.149-42.1429 271.169-46.623 271.165L-132.117 271.185C-136.599 271.186-140.837 269.163-143.633 265.689L-196.945 199.403C-197.243 199.029-197.522 198.641-197.782 198.241-199.947 194.929-200.668 190.889-199.782 187.04L-180.78 104.373C-179.782 100.039-176.849 96.392-172.811 94.4634L-95.7879 57.6611C-94.021 56.8171-92.102 56.3314-90.1434 56.2328Z" fill="#FFFFFF" transform="matrix(1.00052 0 0 1 678.419 569.806)"/><text fill="#FFFFFF" font-family="Arial,Arial_MSFontService,sans-serif" font-weight="400" font-size="3" transform="matrix(12.9745 0 0 12.9678 536.664 823)">node</text><path d="M129.577 53.0935C127.783 53.0364 77.769 77.6269 77.115 78.888 75.5437 81.9183 64.1615 134.414 64.8305 135.545 65.2195 136.202 73.4176 146.592 83.0448 158.632L100.549 180.522 129.353 180.534 158.163 180.546 176.489 157.649 194.821 134.757 188.405 106.636C184.875 91.1682 181.718 78.2542 181.395 77.9431 180.494 77.0758 130.549 53.1254 129.577 53.094ZM132.12 65.3838 143.907 68.8018 132.12 72.2198 120.333 68.8018ZM120.333 70.1108 131.371 73.3946 131.319 88.7392 120.337 82.6528ZM143.907 70.1108 143.907 82.6528 132.926 88.7392 132.874 73.3946ZM115.41 91.0496 127.197 94.4676 115.41 97.8856 103.624 94.4676ZM144.052 91.0496 155.839 94.4676 144.052 97.8856 132.266 94.4676ZM103.624 95.7766 114.661 99.0548 114.609 114.399 103.628 108.319ZM127.197 95.7766 127.197 108.319 116.216 114.399 116.164 99.0548ZM132.266 95.7766 143.303 99.0548 143.251 114.399 132.27 108.319ZM155.839 95.7766 155.839 108.319 144.858 114.399 144.806 99.0548ZM111.105 115.423C114.614 115.548 111.897 119.079 115.882 120.973 120.133 122.993 121.01 117.921 123.68 121.795 126.352 125.669 121.302 124.69 121.678 129.38 122.054 134.071 126.886 132.296 124.866 136.547 122.847 140.797 121.166 135.929 117.292 138.6 113.418 141.27 117.37 144.567 112.683 144.943 107.992 145.319 111.366 141.436 107.116 139.416 102.866 137.396 101.989 142.463 99.3182 138.588 96.6474 134.714 101.702 135.699 101.326 131.008 100.95 126.318 96.1178 128.092 98.1379 123.842 100.158 119.592 101.832 124.46 105.707 121.789 109.581 119.118 105.629 115.821 110.322 115.445 110.614 115.422 110.872 115.416 111.105 115.422ZM141.397 120.128C147.665 120.304 141.587 126.187 147.31 128.748 153.034 131.31 153.368 122.86 157.676 127.417 161.984 131.974 153.527 131.834 155.763 137.693 157.999 143.552 164.213 137.813 164.037 144.082 163.859 150.351 157.978 144.271 155.416 149.995 152.854 155.719 161.305 156.053 156.747 160.361 152.19 164.669 152.336 156.211 146.477 158.448 140.617 160.684 146.36 166.898 140.088 166.721 133.819 166.545 139.899 160.663 134.175 158.101 128.451 155.539 128.112 163.99 123.804 159.432 119.496 154.875 127.953 155.02 125.717 149.161 123.481 143.302 117.267 149.042 117.443 142.773 117.621 136.504 123.502 142.578 126.064 136.854 128.625 131.13 120.175 130.796 124.732 126.488 129.29 122.18 129.15 130.638 135.009 128.402 140.868 126.165 135.125 119.952 141.397 120.128ZM111.379 123.417C107.571 123.418 104.485 126.507 104.487 130.315 104.488 134.121 107.573 137.206 111.379 137.207 115.187 137.209 118.276 134.123 118.277 130.315 118.279 126.504 115.189 123.415 111.379 123.417ZM140.743 129.649C133.132 129.647 126.962 135.817 126.964 143.427 126.965 151.036 133.134 157.203 140.743 157.2 148.349 157.199 154.515 151.034 154.515 143.427 154.518 135.819 148.351 129.65 140.743 129.649Z" fill="#FFFFFF" transform="matrix(1.00052 0 0 1 459.121 604.803)"/></g></g></g><path d="M2.29167-4.02589e-06 2.29199 182.515-2.29135 182.515-2.29167 4.02589e-06ZM13.7503 177.932 0.000360892 205.432-13.7497 177.932Z" fill="#4472C4" transform="matrix(-1 0 0 1 966.5 787.5)"/><path d="M677.5 1070.5C677.5 1027.42 712.422 992.5 755.5 992.5L3594.5 992.5C3637.58 992.5 3672.5 1027.42 3672.5 1070.5L3672.5 1382.5C3672.5 1425.58 3637.58 1460.5 3594.5 1460.5L755.5 1460.5C712.422 1460.5 677.5 1425.58 677.5 1382.5Z" stroke="#2E75B6" stroke-width="4.58333" stroke-miterlimit="8" fill="#DAE3F3" fill-rule="evenodd"/><rect x="2087" y="994" width="171" height="72.9999" fill="#326CE5"/><text fill="#FFFFFF" font-family="Calibri,Calibri_MSFontService,sans-serif" font-weight="400" font-size="46" transform="matrix(1 0 0 1 2148.96 1046)">80</text><rect x="1996" y="1076" width="353" height="112" fill="#326CE5"/><text fill="#FFFFFF" font-family="Calibri,Calibri_MSFontService,sans-serif" font-weight="400" font-size="46" transform="matrix(1 0 0 1 2073.05 1147)">10.106.1.1</text><g clip-path="url(#clip31)"><g clip-path="url(#clip32)"><g clip-path="url(#clip33)"><path d="M-89.8029 56.0182C-91.7541 56.1165-93.6659 56.6003-95.4261 57.4412L-172.16 94.1052C-176.183 96.0265-179.105 99.6602-180.099 103.978L-199.029 186.334C-199.913 190.168-199.194 194.193-197.037 197.493-196.778 197.892-196.5 198.278-196.203 198.651L-143.091 264.687C-140.306 268.149-136.084 270.164-131.619 270.163L-46.4459 270.143C-41.9826 270.147-37.7605 268.135-34.9737 264.677L18.1185 198.631C20.9049 195.168 21.9489 190.634 20.9547 186.315L1.9946 103.958C1.00057 99.6406-1.92156 96.0069-5.9447 94.0856L-82.6879 57.4412C-84.902 56.3834-87.3485 55.8941-89.8029 56.0182Z" fill="#326CE5" transform="matrix(1 0 0 1.00377 2261.54 1179.81)"/><path d="M-89.8441 50.0547C-91.9016 50.1625-93.9167 50.6763-95.7715 51.566L-176.784 90.2615C-181.031 92.2899-184.115 96.1258-185.165 100.684L-205.145 187.623C-206.081 191.672-205.323 195.924-203.045 199.41-202.771 199.829-202.476 200.235-202.162 200.626L-146.096 270.343C-143.156 273.997-138.699 276.124-133.986 276.123L-44.073 276.104C-39.3615 276.107-34.9047 273.983-31.9628 270.333L24.0833 200.607C27.0218 196.953 28.1234 192.171 27.0764 187.613L7.06633 100.664C6.01433 96.1099 2.93004 92.278-1.31457 90.2517L-82.3268 51.5562C-84.666 50.4387-87.251 49.9224-89.8441 50.0547ZM-89.8049 56.0214C-87.3505 55.8973-84.904 56.3866-82.6899 57.4444L-5.94669 94.0888C-1.92354 96.0101 0.998616 99.6439 1.99265 103.961L20.9527 186.318C21.9469 190.638 20.903 195.171 18.1166 198.634L-34.9756 264.681C-37.7625 268.138-41.9846 270.15-46.4478 270.147L-131.621 270.166C-136.086 270.167-140.308 268.152-143.093 264.69L-196.205 198.654C-196.502 198.282-196.78 197.895-197.039 197.496-199.196 194.196-199.915 190.171-199.031 186.338L-180.101 103.981C-179.107 99.6636-176.185 96.0299-172.161 94.1086L-95.428 57.4445C-93.6678 56.6036-91.756 56.1198-89.8048 56.0215Z" fill="#FFFFFF" transform="matrix(1 0 0 1.00377 2261.54 1179.81)"/><text fill="#FFFFFF" font-family="Arial,Arial_MSFontService,sans-serif" font-weight="400" font-size="3" transform="matrix(12.9191 0 0 12.9678 2133.35 1433)">svc</text><path d="M58.0712 145.48 95.6442 145.48 95.6442 171.856 58.0712 171.856Z" fill="#FFFFFF" fill-rule="evenodd" transform="matrix(1 0 0 1.00377 2044.37 1214.8)"/><path d="M109.344 145.48 146.917 145.48 146.917 171.856 109.344 171.856Z" fill="#FFFFFF" fill-rule="evenodd" transform="matrix(1 0 0 1.00377 2044.37 1214.8)"/><path d="M160.616 145.48 198.189 145.48 198.189 171.856 160.616 171.856Z" fill="#FFFFFF" fill-rule="evenodd" transform="matrix(1 0 0 1.00377 2044.37 1214.8)"/><path d="M98.3626 67.2864 157.898 67.2864 157.898 93.6629 98.3626 93.6629Z" fill="#FFFFFF" fill-rule="evenodd" transform="matrix(1 0 0 1.00377 2044.37 1214.8)"/><path d="M128.13 93.6629 128.13 119.571 76.8845 119.571 76.8845 145.447" stroke="#FFFFFF" stroke-width="6.83635" stroke-linejoin="round" stroke-miterlimit="10" fill="none" fill-rule="evenodd" transform="matrix(1 0 0 1.00377 2044.37 1214.8)"/><path d="M128.13 93.6629 128.13 119.571 179.376 119.571 179.376 145.447" stroke="#FFFFFF" stroke-width="6.8342" stroke-linejoin="round" stroke-miterlimit="10" fill="none" fill-rule="evenodd" transform="matrix(1 0 0 1.00377 2044.37 1214.8)"/><path d="M128.022 93.6792 128.022 119.588 128.238 119.588 128.238 145.463" stroke="#FFFFFF" stroke-width="6.83635" stroke-linejoin="round" stroke-miterlimit="10" fill="none" fill-rule="evenodd" transform="matrix(1 0 0 1.00377 2044.37 1214.8)"/></g></g></g><path d="M2175.41 1457.5 2175.41 1583.48 966.5 1583.48 968.792 1581.19 968.792 1681.96 964.208 1681.96 964.208 1578.9 2173.12 1578.9 2170.82 1581.19 2170.82 1457.5ZM980.25 1677.38 966.5 1704.88 952.75 1677.38Z" fill="#4472C4"/><path d="M0-2.29167 124.121-2.29167 124.121 1206.62 121.83 1204.33 220.741 1204.33 220.741 1208.91 119.538 1208.91 119.538 0 121.83 2.29167 0 2.29167ZM216.158 1192.87 243.658 1206.62 216.158 1220.37Z" fill="#4472C4" transform="matrix(1.83697e-16 1 1 -1.83697e-16 2174.5 1460.5)"/><path d="M2107 221.197C2107 184.552 2136.55 155 2173.2 155 2209.45 155 2239 184.552 2239 221.197 2239 257.448 2209.45 287 2173.2 287 2136.55 287 2107 257.448 2107 221.197ZM2173.2 287C2191.72 287 2206.69 257.448 2206.69 221.197 2206.69 184.552 2191.72 155 2173.2 155 2154.28 155 2139.31 184.552 2139.31 221.197 2139.31 257.448 2154.28 287 2173.2 287ZM2110.15 200.707C2235.85 200.707 2235.85 200.707 2235.85 200.707M2110.55 242.081C2235.45 242.081 2235.45 242.081 2235.45 242.081" stroke="#000000" stroke-width="5.72917" stroke-miterlimit="8" fill="none" fill-rule="evenodd"/><text fill="#3C3C41" font-family="Segoe UI Semibold,Segoe UI Semibold_MSFontService,sans-serif" font-weight="600" font-size="64" transform="matrix(1 0 0 1 2056.91 123)">Internet</text><path d="M2.29166-0.0033365 2.70905 286.68-1.87427 286.687-2.29166 0.0033365ZM14.1607 282.079 0.450755 309.599-13.3393 282.12Z" fill="#4472C4" transform="matrix(-1 0 0 1 2172.95 287.5)"/><path d="M0.565582-2.22078 1185.42 299.535 1184.29 303.977-0.565582 2.22078ZM1183.81 287.301 1207.07 307.413 1177.02 313.95Z" fill="#4472C4" transform="matrix(-1 0 0 1 2173.57 287.5)"/><path d="M2174.07 285.279 3358.03 587.032 3356.89 591.474 2172.93 289.721ZM3356.41 574.797 3379.67 594.913 3349.62 601.445Z" fill="#4472C4"/><text font-family="Calibri,Calibri_MSFontService,sans-serif" font-weight="400" font-size="64" transform="matrix(1 0 0 1 2496.31 153)">http://</text><text font-family="Calibri,Calibri_MSFontService,sans-serif" font-weight="400" font-size="64" transform="matrix(1 0 0 1 2672.4 153)">192.168.1.2:30008</text><text font-family="Calibri,Calibri_MSFontService,sans-serif" font-weight="400" font-size="64" transform="matrix(1 0 0 1 2496.31 230)">http://192.168.1.3:30008</text><text font-family="Calibri,Calibri_MSFontService,sans-serif" font-weight="400" font-size="64" transform="matrix(1 0 0 1 2496.31 307)">http://192.168.1.4:30008</text></g></svg>