<svg width="4424" height="1120" xmlns="http://www.w3.org/2000/svg" xmlns:xlink="http://www.w3.org/1999/xlink" xml:space="preserve" overflow="hidden"><defs><clipPath id="clip0"><rect x="589" y="281" width="4424" height="1120"/></clipPath></defs><g clip-path="url(#clip0)" transform="translate(-589 -281)"><text font-family="Segoe UI Semibold,Segoe UI Semibold_MSFontService,sans-serif" font-weight="600" font-size="46" transform="matrix(1 0 0 1 2731.95 1284)">This server is hosting your custom </text><text font-family="Segoe UI Semibold,Segoe UI Semibold_MSFontService,sans-serif" font-weight="600" font-size="46" transform="matrix(1 0 0 1 2881.76 1339)">code/business logic</text><rect x="1032.5" y="283.5" width="569" height="199" stroke="#41719C" stroke-width="4.58333" stroke-miterlimit="8" fill="#5B9BD5"/><text fill="#FFFFFF" font-family="Segoe UI Semibold,Segoe UI Semibold_MSFontService,sans-serif" font-weight="600" font-size="46" transform="matrix(1 0 0 1 1161.02 372)">Authentication</text><text fill="#FFFFFF" font-family="Segoe UI Semibold,Segoe UI Semibold_MSFontService,sans-serif" font-weight="600" font-size="46" transform="matrix(1 0 0 1 1173.05 427)">Authorization</text><path d="M1936.5 1219.5C1936.5 1123.4 2048.43 1045.5 2186.5 1045.5 2324.57 1045.5 2436.5 1123.4 2436.5 1219.5 2436.5 1315.6 2324.57 1393.5 2186.5 1393.5 2048.43 1393.5 1936.5 1315.6 1936.5 1219.5Z" stroke="#ED7D31" stroke-width="4.58333" stroke-miterlimit="8" fill="#ED7D31" fill-rule="evenodd"/><text fill="#FFFFFF" font-family="Segoe UI Semibold,Segoe UI Semibold_MSFontService,sans-serif" font-weight="600" font-size="46" transform="matrix(1 0 0 1 2077.69 1181)">Admission</text><text fill="#FFFFFF" font-family="Segoe UI Semibold,Segoe UI Semibold_MSFontService,sans-serif" font-weight="600" font-size="46" transform="matrix(1 0 0 1 2084.86 1236)">Webhook</text><text fill="#FFFFFF" font-family="Segoe UI Semibold,Segoe UI Semibold_MSFontService,sans-serif" font-weight="600" font-size="46" transform="matrix(1 0 0 1 2119.81 1291)">Server</text><rect x="1817.5" y="283.5" width="738" height="199" stroke="#41719C" stroke-width="4.58333" stroke-miterlimit="8" fill="#5B9BD5"/><text fill="#FFFFFF" font-family="Segoe UI Semibold,Segoe UI Semibold_MSFontService,sans-serif" font-weight="600" font-size="46" transform="matrix(1 0 0 1 1867.43 400)">Mutating Admission Webhook</text><path d="M3.4375-0.00351077 4.04169 591.574-2.83331 591.581-3.4375 0.00351077ZM14.3495 586.98 0.627592 614.494-13.1505 587.008Z" fill="#ED7D31" transform="matrix(-1 0 0 1 2010.13 482.5)"/><path d="M2360.12 1096.99 2360.06 505.417 2366.94 505.417 2366.99 1096.99ZM2349.75 510.001 2363.5 482.5 2377.25 509.999Z" fill="#ED7D31"/><text font-family="Segoe UI Semibold,Segoe UI Semibold_MSFontService,sans-serif" font-weight="600" font-size="46" transform="matrix(1 0 0 1 1814.27 753)">Review </text><text font-family="Segoe UI Semibold,Segoe UI Semibold_MSFontService,sans-serif" font-weight="600" font-size="46" transform="matrix(1 0 0 1 1826.3 808)">Object</text><text font-family="Segoe UI Semibold,Segoe UI Semibold_MSFontService,sans-serif" font-weight="600" font-size="46" transform="matrix(1 0 0 1 2397.09 753)">Mutated/Changed</text><text font-family="Segoe UI Semibold,Segoe UI Semibold_MSFontService,sans-serif" font-weight="600" font-size="46" transform="matrix(1 0 0 1 2520.56 808)">Object</text><rect x="2767.5" y="283.5" width="569" height="199" stroke="#41719C" stroke-width="4.58333" stroke-miterlimit="8" fill="#5B9BD5"/><text fill="#FFFFFF" font-family="Segoe UI Semibold,Segoe UI Semibold_MSFontService,sans-serif" font-weight="600" font-size="46" transform="matrix(1 0 0 1 2897.73 372)">Object schema</text><text fill="#FFFFFF" font-family="Segoe UI Semibold,Segoe UI Semibold_MSFontService,sans-serif" font-weight="600" font-size="46" transform="matrix(1 0 0 1 2948.15 427)">validation</text><path d="M22.9169-3.41651 43.5419-3.39762 43.5356 3.47738 22.9106 3.45849ZM50.4169-3.39132 71.0419-3.37243 71.0356 3.50257 50.4106 3.48367ZM77.9169-3.36613 98.5418-3.34724 98.5356 3.52775 77.9106 3.50886ZM105.417-3.34095 126.042-3.32205 126.036 3.55294 105.411 3.53405ZM132.917-3.31576 153.542-3.29686 153.536 3.57813 132.911 3.55924ZM160.417-3.29057 181.042-3.27168 181.036 3.60332 160.411 3.58443ZM187.917-3.26538 208.542-3.24649 208.536 3.62851 187.911 3.60962ZM215.417-3.24019 236.042-3.2213 236.036 3.6537 215.411 3.63481ZM242.917-3.215 263.542-3.19611 263.536 3.67889 242.911 3.65999ZM270.417-3.18981 291.042-3.17092 291.036 3.70407 270.411 3.68518ZM297.917-3.16463 318.542-3.14573 318.536 3.72926 297.911 3.71037ZM325.417-3.13944 346.042-3.12055 346.035 3.75445 325.411 3.73556ZM352.917-3.11425 373.542-3.09536 373.535 3.77964 352.91 3.76075ZM380.417-3.08906 401.042-3.07017 401.035 3.80483 380.41 3.78594ZM407.917-3.06387 428.542-3.04498 428.535 3.83002 407.91 3.81113ZM435.417-3.03868 456.042-3.01979 456.035 3.85521 435.41 3.83631ZM462.917-3.01349 483.542-2.9946 483.535 3.88039 462.91 3.8615ZM490.417-2.98831 511.042-2.96941 511.035 3.90558 490.41 3.88669ZM517.917-2.96312 538.542-2.94423 538.535 3.93077 517.91 3.91188ZM545.417-2.93793 566.042-2.91904 566.035 3.95596 545.41 3.93707ZM572.917-2.91274 593.542-2.89385 593.535 3.98115 572.91 3.96226ZM600.417-2.88755 621.042-2.86866 621.035 4.00634 600.41 3.98745ZM627.917-2.86236 648.542-2.84347 648.535 4.03153 627.91 4.01263ZM655.417-2.83717 676.042-2.81828 676.035 4.05672 655.41 4.03782ZM682.917-2.81199 703.542-2.79309 703.535 4.0819 682.91 4.06301ZM710.417-2.7868 731.042-2.7679 731.035 4.10709 710.41 4.0882ZM737.917-2.76161 758.542-2.74272 758.535 4.13228 737.91 4.11339ZM765.417-2.73642 786.042-2.71753 786.035 4.15747 765.41 4.13858ZM792.917-2.71123 813.542-2.69234 813.535 4.18266 792.91 4.16377ZM820.417-2.68604 841.042-2.66715 841.035 4.20785 820.41 4.18895ZM847.917-2.66085 868.542-2.64196 868.535 4.23303 847.91 4.21414ZM875.417-2.63567 896.042-2.61677 896.035 4.25822 875.41 4.23933ZM902.917-2.61048 923.542-2.59159 923.535 4.28341 902.91 4.26452ZM930.417-2.58529 951.042-2.5664 951.035 4.3086 930.41 4.28971ZM957.917-2.5601 978.542-2.54121 978.535 4.33379 957.91 4.3149ZM985.417-2.53491 1006.04-2.51602 1006.04 4.35898 985.41 4.34009ZM1012.92-2.50972 1033.54-2.49083 1033.54 4.38417 1012.91 4.36527ZM1040.42-2.48453 1061.04-2.46564 1061.04 4.40935 1040.41 4.39046ZM1067.92-2.45935 1088.54-2.44045 1088.54 4.43454 1067.91 4.41565ZM1095.42-2.43416 1116.04-2.41527 1116.04 4.45973 1095.41 4.44084ZM1122.92-2.40897 1143.54-2.39008 1143.54 4.48492 1122.91 4.46603ZM1150.42-2.38378 1171.04-2.36489 1171.04 4.51011 1150.41 4.49122ZM1177.92-2.35859 1198.54-2.3397 1198.54 4.5353 1177.91 4.51641ZM1205.42-2.3334 1206.4-2.3325 1206.39 4.5425 1205.41 4.54159ZM27.4874 13.7752 0 0 27.5126-13.7248ZM1201.82-12.6492 1229.31 1.12598 1201.8 14.8508Z" fill="#ED7D31" transform="matrix(1 0 0 -1 2436.5 1219.63)"/><rect x="4441.5" y="283.5" width="569" height="199" stroke="#507E32" stroke-width="4.58333" stroke-miterlimit="8" fill="#70AD47"/><text fill="#FFFFFF" font-family="Segoe UI Semibold,Segoe UI Semibold_MSFontService,sans-serif" font-weight="600" font-size="46" transform="matrix(1 0 0 1 4603.24 372)">Persisted to</text><text fill="#FFFFFF" font-family="Segoe UI Semibold,Segoe UI Semibold_MSFontService,sans-serif" font-weight="600" font-size="46" transform="matrix(1 0 0 1 4680.58 427)">etcd</text><rect x="3519.5" y="283.5" width="739" height="199" stroke="#41719C" stroke-width="4.58333" stroke-miterlimit="8" fill="#5B9BD5"/><text fill="#FFFFFF" font-family="Segoe UI Semibold,Segoe UI Semibold_MSFontService,sans-serif" font-weight="600" font-size="46" transform="matrix(1 0 0 1 3560.56 400)">Validating Admission Webhook</text><path d="M3665.5 1218.5C3665.5 1119.09 3777.21 1038.5 3915 1038.5 4052.8 1038.5 4164.5 1119.09 4164.5 1218.5 4164.5 1317.91 4052.8 1398.5 3915 1398.5 3777.21 1398.5 3665.5 1317.91 3665.5 1218.5Z" stroke="#ED7D31" stroke-width="4.58333" stroke-miterlimit="8" fill="#ED7D31" fill-rule="evenodd"/><text fill="#FFFFFF" font-family="Segoe UI Semibold,Segoe UI Semibold_MSFontService,sans-serif" font-weight="600" font-size="46" transform="matrix(1 0 0 1 3806.46 1180)">Admission</text><text fill="#FFFFFF" font-family="Segoe UI Semibold,Segoe UI Semibold_MSFontService,sans-serif" font-weight="600" font-size="46" transform="matrix(1 0 0 1 3813.63 1235)">Webhook</text><text fill="#FFFFFF" font-family="Segoe UI Semibold,Segoe UI Semibold_MSFontService,sans-serif" font-weight="600" font-size="46" transform="matrix(1 0 0 1 3848.58 1290)">Server</text><path d="M3735.94 482.465 3741.85 1068.28 3734.97 1068.35 3729.06 482.535ZM3752.11 1063.6 3738.64 1091.24 3724.61 1063.88Z" fill="#ED7D31"/><path d="M4088.13 1091.27 4082.29 505.45 4089.17 505.381 4095 1091.2ZM4072.02 510.136 4085.5 482.5 4099.52 509.862Z" fill="#ED7D31"/><text font-family="Segoe UI Semibold,Segoe UI Semibold_MSFontService,sans-serif" font-weight="600" font-size="46" transform="matrix(1 0 0 1 3534.27 753)">Review </text><text font-family="Segoe UI Semibold,Segoe UI Semibold_MSFontService,sans-serif" font-weight="600" font-size="46" transform="matrix(1 0 0 1 3546.3 808)">Object</text><text font-family="Segoe UI Semibold,Segoe UI Semibold_MSFontService,sans-serif" font-weight="600" font-size="46" transform="matrix(1 0 0 1 4127.28 753)">Allow/</text><text font-family="Segoe UI Semibold,Segoe UI Semibold_MSFontService,sans-serif" font-weight="600" font-size="46" transform="matrix(1 0 0 1 4141.6 808)">Deny</text><path d="M723.5 379.063 1009.26 379.064 1009.26 385.939 723.5 385.938ZM1004.67 368.752 1032.17 382.502 1004.67 396.252Z" fill="#4472C4"/><text font-family="Segoe UI Semibold,Segoe UI Semibold_MSFontService,sans-serif" font-weight="600" font-size="46" transform="matrix(1 0 0 1 751.729 359)">API Request</text><path d="M5.74707e-06-3.4375 192.944-3.43718 192.944 3.43782-5.74707e-06 3.4375ZM188.361-13.7497 215.861 0.000360892 188.361 13.7503Z" fill="#4472C4" transform="matrix(1 0 0 -1 1601.5 382.5)"/><path d="M1.17324e-05-3.4375 188.561-3.43686 188.561 3.43814-1.17324e-05 3.4375ZM183.978-13.7494 211.478 0.000721785 183.978 13.7506Z" fill="#4472C4" transform="matrix(1 0 0 -1 2555.5 382.501)"/><path d="M3336.5 379.063 3497.04 379.063 3497.04 385.938 3336.5 385.938ZM3492.46 368.75 3519.96 382.5 3492.46 396.25Z" fill="#4472C4"/><path d="M6.76217e-06-3.4375 160.54-3.43718 160.54 3.43782-6.76217e-06 3.4375ZM155.957-13.7497 183.457 0.000360892 155.957 13.7503Z" fill="#4472C4" transform="matrix(1 0 0 -1 4258.5 382.5)"/><path d="M592 387.197C592 350.552 621.552 321 658.197 321 694.448 321 724 350.552 724 387.197 724 423.448 694.448 453 658.197 453 621.552 453 592 423.448 592 387.197ZM658.197 453C676.716 453 691.69 423.448 691.69 387.197 691.69 350.552 676.716 321 658.197 321 639.284 321 624.31 350.552 624.31 387.197 624.31 423.448 639.284 453 658.197 453ZM595.152 366.708C720.848 366.708 720.848 366.708 720.848 366.708M595.546 408.081C720.454 408.081 720.454 408.081 720.454 408.081" stroke="#000000" stroke-width="5.72917" stroke-miterlimit="8" fill="none" fill-rule="evenodd"/></g></svg>